<?xml version="1.0" standalone="no"?>
<!DOCTYPE svg PUBLIC "-//W3C//DTD SVG 20010904//EN"
 "http://www.w3.org/TR/2001/REC-SVG-20010904/DTD/svg10.dtd">
<svg version="1.0" xmlns="http://www.w3.org/2000/svg"
 width="700.000000pt" height="700.000000pt" viewBox="0 0 700.000000 700.000000"
 preserveAspectRatio="xMidYMid meet">
<metadata>
Created by potrace 1.11, written by Peter Selinger 2001-2013
</metadata>
<g transform="translate(0.000000,700.000000) scale(0.100000,-0.100000)"
fill="#000000" stroke="none">
<path d="M1430 6492 c-6 -2 -10 -97 -10 -255 l0 -252 253 0 252 0 2 253 1 252
-21 1 c-119 2 -469 3 -477 1z"/>
<path d="M2047 6492 c-15 -3 -17 -28 -17 -255 l0 -252 253 0 253 0 0 254 -1
253 -236 2 c-129 0 -243 0 -252 -2z"/>
<path d="M4515 6492 l-51 -3 0 -249 c0 -217 3 -250 16 -251 8 -1 122 -2 252
-3 l238 -1 0 253 0 252 -22 1 c-75 3 -391 4 -433 1z"/>
<path d="M5119 6490 l-46 -5 -1 -247 c-1 -137 2 -249 6 -249 4 -1 118 -2 255
-3 l247 -1 -2 254 -3 253 -205 2 c-113 0 -226 -1 -251 -4z"/>
<path d="M810 5634 c0 -193 3 -253 13 -256 10 -3 464 -2 489 1 4 1 6 115 5
253 l-2 253 -252 0 -253 0 0 -251z"/>
<path d="M1420 5633 c0 -195 3 -253 13 -254 6 0 120 -1 252 -2 l240 -1 2 252
c1 139 -2 252 -5 253 -4 1 -118 2 -254 3 l-248 1 0 -252z"/>
<path d="M2034 5881 c-2 -2 -4 -116 -4 -253 0 -191 3 -248 13 -249 17 -1 459
-1 477 0 13 1 15 33 15 245 0 134 -4 248 -8 253 -8 8 -485 12 -493 4z"/>
<path d="M2643 5876 c-3 -4 -6 -119 -6 -254 l0 -245 254 -1 254 0 0 254 0 254
-248 1 c-137 0 -251 -4 -254 -9z"/>
<path d="M3247 5875 c-1 -5 -2 -120 -2 -254 l1 -244 240 -1 c131 -1 246 0 254
2 13 3 15 38 14 247 0 135 -4 248 -8 252 -11 12 -495 10 -499 -2z"/>
<path d="M3859 5880 c-1 -3 -2 -116 -3 -252 -1 -159 3 -249 9 -251 20 -5 485
0 491 6 5 4 9 388 5 482 -1 19 -8 20 -251 20 -138 0 -251 -2 -251 -5z"/>
<path d="M4469 5885 c-1 0 -2 -114 -3 -252 -2 -222 0 -253 14 -254 19 -1 472
-1 483 0 4 1 6 115 5 253 l-3 253 -247 0 c-137 0 -249 0 -249 0z"/>
<path d="M5075 5880 c-2 -3 -3 -116 -3 -252 0 -247 0 -248 21 -249 76 -3 455
-4 470 0 16 3 17 21 15 254 l-3 251 -248 1 c-137 0 -250 -2 -252 -5z"/>
<path d="M5684 5881 c-2 -2 -4 -116 -4 -253 l0 -248 23 -1 c12 0 127 -2 255
-2 l232 -2 -2 255 -3 254 -248 1 c-137 0 -250 -2 -253 -4z"/>
<path d="M208 5275 c0 0 -2 -114 -3 -252 l-2 -253 253 0 254 0 0 253 0 252
-250 0 c-137 0 -251 0 -252 0z"/>
<path d="M814 5271 c-2 -2 -4 -116 -4 -253 l0 -248 254 0 255 0 -2 252 -2 253
-248 0 c-137 0 -250 -2 -253 -4z"/>
<path d="M1424 5271 c-2 -2 -4 -116 -4 -253 l0 -248 254 0 253 0 -1 253 -1
252 -248 0 c-137 0 -250 -2 -253 -4z"/>
<path d="M2030 5023 l0 -253 253 0 253 0 -1 252 0 253 -252 0 -253 0 0 -252z"/>
<path d="M2639 5235 c-1 -47 -1 -446 0 -457 1 -5 115 -8 254 -8 l252 0 0 250
c0 138 -2 251 -5 251 -3 1 -116 2 -252 3 l-248 2 -1 -41z"/>
<path d="M3248 5260 c-2 -8 -3 -121 -3 -250 l1 -235 254 -3 255 -2 -2 247 c0
137 -1 250 -2 253 -1 3 -113 5 -250 5 -215 0 -250 -2 -253 -15z"/>
<path d="M3862 5270 c-4 -3 -8 -116 -7 -252 l0 -248 255 0 255 0 -1 245 c-1
135 -5 249 -9 253 -8 8 -482 10 -493 2z"/>
<path d="M4469 5275 c-1 0 -2 -114 -3 -252 l-2 -253 253 0 253 0 0 253 0 252
-250 0 c-137 0 -251 0 -251 0z"/>
<path d="M5075 5270 c-2 -3 -3 -116 -3 -252 l-1 -248 255 0 254 0 0 253 0 252
-251 0 c-138 0 -252 -2 -254 -5z"/>
<path d="M5684 5271 c-2 -2 -4 -116 -4 -253 l0 -248 255 0 255 0 -2 252 -3
253 -248 0 c-136 0 -250 -1 -253 -4z"/>
<path d="M6290 5022 l0 -252 253 2 252 3 2 235 c0 129 -1 242 -3 250 -3 13
-40 15 -254 15 l-250 0 0 -253z"/>
<path d="M205 4656 c-2 -6 -3 -119 -2 -251 l2 -240 252 -3 253 -2 0 253 0 254
-251 0 c-169 -1 -252 -4 -254 -11z"/>
<path d="M815 4662 c-3 -3 -5 -117 -5 -254 l0 -248 254 0 255 0 -2 253 -2 252
-247 1 c-136 0 -250 -1 -253 -4z"/>
<path d="M1425 4662 c-3 -3 -5 -117 -5 -254 l0 -248 254 0 254 0 0 253 0 254
-249 0 c-137 0 -251 -2 -254 -5z"/>
<path d="M2030 4413 l0 -253 253 2 252 3 0 250 0 250 -252 1 -253 1 0 -254z"/>
<path d="M2639 4651 c-1 -22 -1 -452 0 -474 1 -16 18 -17 254 -15 l252 3 0
250 0 250 -253 1 c-226 1 -252 0 -253 -15z"/>
<path d="M3248 4656 c-2 -6 -3 -119 -3 -251 l1 -240 255 -3 254 -2 -2 247 c0
137 -1 251 -2 254 -2 11 -500 7 -503 -5z"/>
<path d="M3859 4666 c-1 -1 -2 -115 -3 -253 l-1 -253 255 0 255 0 -2 227 c-1
126 -2 240 -2 254 l-1 25 -250 1 c-137 0 -251 0 -251 -1z"/>
<path d="M4465 4416 l0 -251 253 -3 252 -2 0 253 0 254 -253 0 -253 0 1 -251z"/>
<path d="M5076 4661 c-2 -3 -4 -117 -4 -253 l-1 -248 255 0 254 0 0 254 0 253
-250 0 c-138 0 -252 -3 -254 -6z"/>
<path d="M5680 4413 l0 -253 255 0 255 0 0 253 0 254 -255 0 -255 -1 0 -253z"/>
<path d="M6290 4413 l0 -253 253 0 254 0 -2 248 c-1 136 -2 250 -3 253 -1 3
-114 6 -252 6 l-250 0 0 -254z"/>
<path d="M203 3804 l0 -254 254 0 253 0 0 255 0 255 -254 -2 -253 -1 0 -253z"/>
<path d="M810 3804 l0 -254 254 0 255 0 0 254 0 255 -255 0 -254 0 0 -255z"/>
<path d="M1420 3804 l0 -254 255 0 256 0 -2 254 -2 254 -253 1 -254 0 0 -255z"/>
<path d="M2030 3805 l0 -255 253 0 253 0 -1 253 0 252 -252 2 -253 2 0 -254z"/>
<path d="M2639 4032 c-1 -35 -1 -441 0 -465 1 -16 18 -17 254 -15 l252 3 0
250 0 250 -253 2 -252 3 -1 -28z"/>
<path d="M3248 4047 c-3 -10 -2 -462 1 -489 1 -5 114 -8 251 -8 193 0 250 3
251 13 1 6 2 121 3 254 l1 242 -252 0 c-184 0 -252 -4 -255 -12z"/>
<path d="M3857 4052 c-2 -4 -3 -117 -3 -252 l1 -245 254 0 254 0 -1 225 c0
124 -1 237 -1 252 l-1 27 -250 0 c-137 0 -251 -4 -253 -7z"/>
<path d="M4464 3805 l0 -255 253 0 253 0 0 254 0 255 -253 0 -253 0 0 -254z"/>
<path d="M5072 3804 l0 -254 254 0 254 0 0 254 0 255 -254 0 -253 0 -1 -255z"/>
<path d="M5686 4052 c-3 -3 -6 -117 -6 -254 l0 -248 255 0 255 0 0 255 0 255
-249 -1 c-138 -1 -252 -4 -255 -7z"/>
<path d="M6290 3805 l0 -255 253 0 254 0 0 254 0 254 -254 1 -253 1 0 -255z"/>
<path d="M810 3195 l0 -254 253 2 252 2 2 253 3 252 -255 0 -255 0 0 -255z"/>
<path d="M1420 3195 l0 -254 253 2 252 2 3 253 3 252 -256 0 -255 0 0 -255z"/>
<path d="M2030 3195 l0 -255 253 0 252 1 1 254 0 255 -253 0 -253 0 0 -255z"/>
<path d="M2639 3443 c-1 -11 -1 -464 0 -486 1 -16 18 -17 254 -15 l252 3 1
240 c0 132 -1 246 -4 253 -3 9 -63 12 -253 12 -137 0 -249 -3 -250 -7z"/>
<path d="M3249 3433 c-3 -61 -4 -461 0 -476 3 -16 21 -17 254 -15 l251 3 0
250 0 250 -252 3 c-235 2 -252 1 -253 -15z"/>
<path d="M3855 3198 l0 -253 253 -3 c236 -2 252 -1 253 15 1 25 1 454 0 476
-1 16 -20 17 -254 17 l-252 0 0 -252z"/>
<path d="M4465 3198 l0 -253 253 -2 252 -3 0 255 0 255 -253 0 -253 0 1 -252z"/>
<path d="M5072 3196 l-1 -254 255 -1 254 -1 0 255 0 255 -254 0 -253 0 -1
-254z"/>
<path d="M5680 3196 l0 -254 255 -1 255 -2 0 256 0 255 -255 0 -255 0 0 -254z"/>
<path d="M2143 2842 l-113 -3 0 -253 0 -253 253 1 252 1 0 252 1 252 -140 3
c-77 2 -191 2 -253 0z"/>
<path d="M2713 2842 c-61 -2 -73 -6 -74 -20 0 -9 -1 -123 -1 -252 l-1 -235
254 0 254 0 0 252 1 252 -181 3 c-99 2 -213 2 -252 0z"/>
<path d="M3335 2840 l-90 -5 0 -251 0 -251 254 1 255 1 0 250 0 250 -165 5
c-90 3 -204 3 -254 0z"/>
<path d="M3900 2840 l-45 -5 0 -250 0 -250 253 -1 252 -1 1 31 c1 45 1 438 0
458 -1 16 -21 18 -208 20 -115 2 -228 1 -253 -2z"/>
<path d="M5109 2842 l-37 -3 0 -253 0 -252 254 -1 254 0 0 253 0 253 -217 3
c-120 2 -234 2 -254 0z"/>
<path d="M1422 2588 l3 -253 251 -1 251 -1 1 254 0 253 -254 0 -254 0 2 -252z"/>
<path d="M4465 2588 l0 -253 253 -1 252 -1 0 253 0 254 -253 0 -253 0 1 -252z"/>
<path d="M2643 2227 c-7 -12 -7 -482 0 -493 3 -5 113 -9 254 -9 l248 0 0 253
0 252 -140 1 c-77 0 -189 1 -248 2 -60 1 -111 -2 -114 -6z"/>
<path d="M3410 2230 l-165 -5 1 -250 0 -250 252 0 c218 0 252 2 253 15 5 92 2
483 -4 487 -13 8 -147 9 -337 3z"/>
<path d="M4500 2232 l-35 -3 0 -252 0 -252 253 0 252 0 0 252 0 253 -92 1
c-51 0 -149 1 -218 2 -69 1 -141 1 -160 -1z"/>
<path d="M2030 1978 l0 -253 253 0 252 0 0 250 0 250 -252 3 -253 2 0 -252z"/>
<path d="M3855 1980 c0 -137 2 -251 5 -251 3 -1 116 -2 253 -3 214 -1 247 1
248 14 1 18 1 422 0 463 l-1 27 -253 0 -252 0 0 -250z"/>
<path d="M2643 1616 c-7 -11 -7 -481 0 -493 3 -4 117 -8 254 -8 l248 0 0 253
c0 165 -3 252 -10 253 -63 6 -488 2 -492 -5z"/>
<path d="M3257 1618 c-10 -6 -18 -497 -7 -499 3 -1 115 -2 248 -3 209 -1 245
1 251 14 5 11 7 464 2 490 -2 8 -481 6 -494 -2z"/>
<path d="M3856 1620 c-1 -3 -2 -117 -2 -255 l1 -250 253 0 c246 0 252 0 253
20 4 106 1 477 -5 482 -7 7 -497 11 -500 3z"/>
<path d="M3249 1005 c0 -5 -1 -119 -2 -253 l-2 -242 45 -1 c57 0 453 0 460 0
3 1 5 114 5 251 0 215 -2 250 -15 251 -85 7 -490 2 -491 -6z"/>
</g>
</svg>
