<svg xmlns="http://www.w3.org/2000/svg" xmlns:xlink="http://www.w3.org/1999/xlink">
	<defs>
		<path id="thinkmill-a" d="M30.45 59.87c-16.57 0-30-13.22-30-29.53 0-16.3 13.43-29.53 30-29.53C47 .81 60.44 14.03 60.44 30.34c0 16.31-13.43 29.53-30 29.53zm0-4.08c14.27 0 25.84-11.4 25.84-25.45C56.3 16.3 44.72 4.9 30.45 4.9 16.17 4.9 4.6 16.3 4.6 30.34 4.6 44.4 16.17 55.8 30.45 55.8zm-7.7-19.72c.33 0 .69-.05.9-.13v2.23c-.44.12-1.1.22-1.64.22-2.71 0-3.9-1.12-3.9-3.9v-6.78h-2.17v-2.17h2.16v-3.18H21v3.18h2.51v2.17H21v6.36c0 1.42.48 2 1.75 2zm17.79-10.83c2.74 0 4.42 1.75 4.42 5.17v7.83h-2.9V30.7c0-2.25-.89-3.15-2.34-3.15-1.7 0-2.72 1.42-2.72 3.85v6.85h-2.9V30.4c0-1.8-.8-2.85-2.3-2.85-1.73 0-2.72 1.45-2.72 3.9v6.8h-2.9v-12.7h2.77v1.52H29a4.2 4.2 0 0 1 3.58-1.82c1.78 0 3.15.8 3.81 2.3a4.57 4.57 0 0 1 4.15-2.3z"/>
		<path id="thinkmill-b" d="M87.64 23.3v-2.49h-14.3v2.5h5.7v14.57h2.9V23.3h5.7zm4.55 3.84V20.8H89.4v17.07h2.78v-6.76c0-2.33 1.24-3.5 2.82-3.5 1.56 0 2.5.86 2.5 3.04v7.22h2.78v-7.46c0-3.33-1.7-5-4.5-5a4.3 4.3 0 0 0-3.56 1.72h-.04zm14.07-3.72v-2.61h-2.78v2.61h2.78zm0 14.46V25.7h-2.78v12.18h2.78zm9.68-12.47c-1.63 0-2.92.77-3.7 1.87h-.05V25.7h-2.63v12.18h2.78v-6.76c0-2.33 1.24-3.5 2.82-3.5 1.56 0 2.51.86 2.51 3.04v7.22h2.78v-7.46c0-3.33-1.7-5-4.5-5zm18.85 12.47l-5.7-6.62 5.11-5.56h-3.24l-4.5 4.99h-.05V20.8h-2.78v17.07h2.78v-5.9h.05l4.82 5.9h3.5zM149.6 25.4c-1.87 0-3.07.82-3.97 2.2-.63-1.43-1.95-2.2-3.65-2.2-1.46 0-2.56.58-3.43 1.75h-.05V25.7h-2.66v12.18h2.78v-6.52c0-2.35.95-3.74 2.6-3.74 1.44 0 2.22 1 2.22 2.73v7.53h2.78V31.3c0-2.33.97-3.7 2.6-3.7 1.39 0 2.24.87 2.24 3.03v7.24h2.78v-7.5c0-3.29-1.61-4.97-4.24-4.97zm10.2-1.99v-2.61h-2.78v2.61h2.78zm0 14.46V25.7h-2.78v12.18h2.78zm6.08 0V20.8h-2.77v17.07h2.77zm6.09 0V20.8h-2.78v17.07h2.78z"/>
	</defs>

	<symbol id="atlassian-centered" viewBox="0 0 225 63">
		<g fill="#FFF" fill-rule="nonzero">
			<path d="M8.57 30.27a.78.78 0 0 0-1.33.15L.51 44.06a.82.82 0 0 0 .03.79c.15.24.4.39.69.39h9.37c.31 0 .6-.17.72-.45 2.03-4.24.8-10.68-2.75-14.52zM13.5 17.86a18.2 18.2 0 0 0-1.03 17.77L17 44.79a.8.8 0 0 0 .72.45h9.38a.8.8 0 0 0 .68-.4.82.82 0 0 0 .04-.78l-12.93-26.2a.76.76 0 0 0-.69-.43c-.29 0-.55.17-.68.43zM123.5 28.8c0 3.38 1.54 6.06 7.59 7.24 3.6.77 4.36 1.36 4.36 2.58 0 1.18-.75 1.95-3.3 1.95a18.44 18.44 0 0 1-8.76-2.4v5.5c1.82.9 4.23 1.91 8.7 1.91 6.32 0 8.83-2.85 8.83-7.1m0 0c0-4-2.1-5.88-8.01-7.17-3.27-.73-4.06-1.47-4.06-2.51 0-1.32 1.17-1.88 3.34-1.88 2.61 0 5.19.8 7.63 1.91v-5.25a17.06 17.06 0 0 0-7.46-1.57c-5.84 0-8.87 2.58-8.87 6.79M204.75 22.36v22.88h4.82V27.79l2.03 4.63 6.8 12.82h6.05V22.36h-4.81v14.76l-1.82-4.28-5.47-10.48zM168.88 22.36h5.26v22.88h-5.26zM162.82 38.48c0-4-2.1-5.88-8.01-7.17-3.27-.73-4.06-1.47-4.06-2.51 0-1.32 1.17-1.88 3.33-1.88 2.62 0 5.2.8 7.64 1.91v-5.25a17.06 17.06 0 0 0-7.46-1.57c-5.85 0-8.87 2.58-8.87 6.79 0 3.38 1.54 6.06 7.6 7.24 3.6.77 4.36 1.36 4.36 2.58 0 1.18-.76 1.95-3.3 1.95a18.44 18.44 0 0 1-8.77-2.4v5.5c1.82.9 4.23 1.91 8.7 1.91 6.33 0 8.84-2.85 8.84-7.1M82.63 22.36v22.88h10.81l1.7-4.95h-7.22V22.36zM61.27 22.36v4.94h5.85v17.94h5.29V27.3h6.26v-4.94zM53.6 22.36h-6.94l-7.88 22.88h6.02l1.11-3.86c2.75.82 5.68.82 8.43 0l1.11 3.86h6.02L53.6 22.36zm-3.47 14.9c-.98 0-1.96-.14-2.9-.42l2.9-9.99 2.9 9.99c-.95.28-1.92.42-2.9.42zM112.08 22.36h-6.94l-7.87 22.88h6.01l1.12-3.86c2.75.82 5.67.82 8.42 0l1.12 3.86h6.01l-7.87-22.88zm-3.47 14.9c-.98 0-1.95-.14-2.9-.42l2.9-9.99 2.9 9.99c-.94.28-1.92.42-2.9.42zM193.1 22.36h-6.94l-7.88 22.88h6.02l1.12-3.86c2.75.82 5.67.82 8.42 0l1.12 3.86h6.01l-7.87-22.88zm-3.47 14.9c-.98 0-1.96-.14-2.9-.42l2.9-9.99 2.9 9.99c-.95.28-1.92.42-2.9.42z"/>
		</g>
	</symbol>
	<symbol id="ansarada-centered" viewBox="0 0 206 63">
		<g fill="#FFF" fill-rule="nonzero" transform="translate(1 17)">
			<path d="M6.47 28.26a6.47 6.47 0 0 1-6.43-6.5c0-3.6 2.88-6.51 6.43-6.51h6.47v6.5c0 1.73-.69 3.39-1.9 4.61a6.41 6.41 0 0 1-4.57 1.9zM14.43 13.72V.94a12.2 12.2 0 0 1 9 3.66 12.5 12.5 0 0 1 3.56 9.12H14.43zM20.93 27.96a6.18 6.18 0 0 1-4.55-1.7 6.33 6.33 0 0 1-1.95-4.5v-6.5h12.56v12.71l-6.06-.01z"/>
			<ellipse cx="6.47" cy="7.2" rx="6.43" ry="6.5"/>
			<path d="M48.64 17.2v-.97c0-2.39-1.36-3.63-3.89-3.63a3.75 3.75 0 0 0-3.5 2.51h-4.71V8.67h4.7v1.96h.35a6.79 6.79 0 0 1 5.11-2.28c5.08 0 7.67 2.51 7.67 7.99v7.76h2.36v3.86h-7.9v-2.39h-.42a7.5 7.5 0 0 1-5.84 2.76c-4.27 0-6.98-2.55-6.98-6.14s2.72-6.14 7.36-6.14c1.83-.06 3.64.35 5.27 1.2l.42-.05zm-7.26 4.88c0 1.38 1.19 2.76 3.7 2.76 2.51 0 3.7-1.38 3.7-2.76s-1.19-2.76-3.7-2.76c-2.51 0-3.7 1.38-3.7 2.76zM72.1 8.35c3.86 0 6 2.76 6 6.6v9.15h2.4v3.86h-8.2V16.38c0-2.23-1.14-3.28-2.97-3.28a2.8 2.8 0 0 0-2.29.9 2.88 2.88 0 0 0-.72 2.38v7.73h3.12v3.86H58.26v-3.86h2.33v-11.6h-2.73V8.68h8.28v3.12h.38a6.25 6.25 0 0 1 5.58-3.44zm14.63 18.08v1.54h-4.7v-6.76h4.7a4.49 4.49 0 0 0 4.46 3.01c1.87 0 2.73-.77 2.73-1.63 0-.85-.43-1.38-2.17-1.65l-3.97-.78c-3.48-.66-5.39-2.5-5.39-5.6 0-3.55 2.55-6.21 6.82-6.21 1.87-.08 3.7.59 5.08 1.86h.38V8.67h4.69v6.44h-4.7c-.33-1.78-2.35-2.9-4.38-2.9-2.04 0-2.56.78-2.56 1.6 0 .8.47 1.2 1.76 1.45l4.74.93c3.82.73 5.22 2.76 5.22 5.8 0 3.82-3.16 6.29-7.45 6.29a6.2 6.2 0 0 1-4.88-1.85h-.38zm26.75-9.23v-.97c0-2.39-1.36-3.63-3.89-3.63a3.75 3.75 0 0 0-3.5 2.51h-4.7V8.67h4.7v1.96h.38a6.79 6.79 0 0 1 5.11-2.28c5.08 0 7.67 2.51 7.67 7.99v7.76h2.33v3.86h-7.9v-2.39h-.38a7.5 7.5 0 0 1-5.84 2.76c-4.27 0-6.98-2.55-6.98-6.14s2.73-6.14 7.37-6.14c1.82-.06 3.64.35 5.26 1.2l.37-.05zm-7.24 4.88c0 1.38 1.18 2.76 3.7 2.76 2.5 0 3.69-1.38 3.69-2.76s-1.19-2.76-3.7-2.76c-2.5 0-3.7 1.38-3.7 2.76zm16.88 2.04h2.34v-11.6h-2.73V8.65H131v3.14h.38a5.81 5.81 0 0 1 5.46-3.14h.68v6.45h-4.45c-1.25 0-1.87.58-1.87 2.12v6.9h3.14V28h-11.24l.01-3.87zm28.56-6.9v-.96c0-2.39-1.37-3.63-3.9-3.63a3.75 3.75 0 0 0-3.5 2.5h-4.69V8.66h4.7v1.98h.37a6.79 6.79 0 0 1 5.12-2.28c5.08 0 7.67 2.51 7.67 7.99v7.76h2.33v3.86h-7.9v-2.39h-.38a7.5 7.5 0 0 1-5.84 2.76c-4.27 0-6.98-2.55-6.98-6.14s2.72-6.14 7.36-6.14c1.83-.06 3.64.35 5.27 1.2l.37-.03zm-7.26 4.86c0 1.38 1.19 2.76 3.7 2.76 2.5 0 3.7-1.38 3.7-2.76s-1.2-2.76-3.7-2.76c-2.51 0-3.7 1.31-3.7 2.76zm29.7-11.2V5.38h-2.94V.94h8.7V23.6h2.34v4.36h-7.56v-2.62h-.38a7.45 7.45 0 0 1-5.73 2.94c-5.22 0-8.51-4.21-8.51-9.97 0-5.75 3.29-9.96 8.51-9.96 2 .08 3.88.99 5.2 2.51l.37.03zm.15 7.46c0-3.55-1.45-5.84-3.97-5.84-2.53 0-4.16 2.28-4.16 5.84s1.63 5.84 4.16 5.84c2.52 0 3.95-2.32 3.95-5.87l.02.03zm22.25-1.12v-.96c0-2.39-1.37-3.63-3.9-3.63a3.75 3.75 0 0 0-3.5 2.5h-4.7V8.66h4.69v1.98h.38a6.79 6.79 0 0 1 5.12-2.28c5.07 0 7.66 2.51 7.66 7.99v7.76h2.34v3.86h-7.9v-2.39h-.38a7.5 7.5 0 0 1-5.84 2.76c-4.3-.05-7.03-2.6-7.03-6.25 0-3.64 2.73-6.14 7.37-6.14 1.83-.06 3.64.35 5.26 1.2l.43.08zm-7.26 4.86c0 1.38 1.19 2.76 3.7 2.76 2.5 0 3.7-1.38 3.7-2.76s-1.2-2.76-3.7-2.76c-2.51 0-3.7 1.31-3.7 2.76z"/>
		</g>
	</symbol>
	<symbol id="lendi-centered" viewBox="0 0 122 63">
		<g fill="#FFF" fill-rule="evenodd">
			<path d="M116 24h2.57a2.47 2.47 0 0 1 2.43 2.47V28h-5v-4zM45 24h2.57c.64-.02 1.26.24 1.72.7.47.46.73 1.12.7 1.8V50H45V24z"/>
			<path fill-rule="nonzero" d="M66.02 44.4h3.68a8.32 8.32 0 0 1-3.07 4.84A9.12 9.12 0 0 1 60.9 51c-2.79 0-4.97-.94-6.54-2.81-1.57-1.82-2.35-4.42-2.35-7.8 0-3.23.76-5.76 2.28-7.58 1.57-1.87 3.75-2.81 6.54-2.81 2.94 0 5.22.9 6.82 2.73C69.21 34.6 70 37.2 70 40.53v.83c0 .18-.02.36-.07.53H57.2c.05 1.57.42 2.73 1.1 3.49.64.8 1.6 1.21 2.87 1.21a4.09 4.09 0 0 0 2.53-.8l.41-.41c.13-.25.32-.46.55-.6.4-.29.88-.42 1.36-.39zm-8.82-5.9h7.5a5.04 5.04 0 0 0-1.02-3.03 3.57 3.57 0 0 0-2.73-1.06 3.53 3.53 0 0 0-2.64 1.06c-.7.7-1.06 1.7-1.1 3.03z"/>
			<path d="M91 51h-2.72a2.52 2.52 0 0 1-2.63-2.63v-10.5c0-1.23-.38-2.13-1.13-2.7a4.09 4.09 0 0 0-5 0c-.71.57-1.07 1.47-1.07 2.7V51H73V38.95c0-3.5.92-5.84 2.75-7.02A12.05 12.05 0 0 1 81.84 30c2.22-.01 4.4.61 6.28 1.8 1.92 1.18 2.88 3.57 2.88 7.15V51z"/>
			<path fill-rule="nonzero" d="M106.83 24h2.59c.7 0 1.36.29 1.83.81.47.48.74 1.13.75 1.81v15.03c0 3.65-1.04 6.12-3.12 7.4a12.62 12.62 0 0 1-6.75 1.95 11.8 11.8 0 0 1-3.88-.66 6.35 6.35 0 0 1-3.05-2.12c-1.47-1.9-2.2-4.5-2.2-7.79 0-3.24.73-5.84 2.2-7.79a7.03 7.03 0 0 1 5.86-3 7 7 0 0 1 3.34.77c.99.6 1.82 1.41 2.43 2.4V24zm-8.66 16.2c0 2.06.38 3.63 1.14 4.7a3.76 3.76 0 0 0 3.27 1.63 3.69 3.69 0 0 0 3.2-1.62c.7-1.08 1.05-2.65 1.05-4.71 0-1.85-.38-3.31-1.14-4.4a3.95 3.95 0 0 0-3.27-1.54 3.61 3.61 0 0 0-3.11 1.62c-.76 1.03-1.14 2.47-1.14 4.32z"/>
			<path d="M116 30h2.57a2.51 2.51 0 0 1 2.43 2.56V50h-5V30z"/>
			<path fill-rule="nonzero" d="M38.5 24.12L22.64 13.56a3.38 3.38 0 0 0-3.7-.02L2.53 24.09A3.33 3.33 0 0 0 1 26.9v20.78C1 49.5 2.5 51 4.36 51h32.28C38.5 51 40 49.5 40 47.67V26.89c0-1.11-.56-2.15-1.5-2.77zm-5.22 20.22h-9.42v-9.7h-6.7v9.7H7.71V28.7l13-8.37 12.56 8.34v15.67z"/>
		</g>
	</symbol>
	<symbol id="pwc-centered" viewBox="0 0 85 63">
		<g fill="#FFF" fill-rule="nonzero">
			<path d="M84 27.02H53.84V19.3H84z"/>
			<path d="M80.08 27.02H53.84V7.71h26.24z"/>
			<path d="M69.24 27.02h-15.4V0h15.4z"/>
			<path d="M72.27 27.02H53.84V3.01h18.43v24.01z"/>
			<path d="M53.84 3.02v23.99h15.4V3.02zM38.4 27.02h15.44v3.85H38.4z"/>
			<path d="M53.84 7.71v19.3h18.44V7.71z"/>
			<path d="M53.84 7.71v19.3h15.4V7.71z"/>
			<path d="M63.47 27.02h-9.63V15.43h9.63z"/>
			<path d="M53.84 19.3v7.71h26.25V19.3z"/>
			<path d="M53.84 19.3v7.71h18.44V19.3z"/>
			<path d="M53.84 19.3v7.71h15.4V19.3z"/>
			<path d="M53.84 19.3v7.71h9.64V19.3zM57.2 41.55c-2.63.47-4.03 2.45-4.03 5.9 0 3.5 1.87 5.83 4.61 5.83 1.34 0 2.51-.46 4.97-1.69v2.86c-2.98 1.4-4.73 1.75-7.07 1.75-2.63 0-4.5-.64-5.96-2.21a7.97 7.97 0 0 1-2.33-5.78c0-4.97 3.74-8.41 9.17-8.41 3.56 0 6.07 1.7 6.07 4.09 0 1.57-1.17 2.68-2.86 2.68-.88 0-1.58-.3-2.57-.82M44.06 48.2c2.4-2.97 3.27-4.2 3.27-5.66a2.75 2.75 0 0 0-2.8-2.74c-.94 0-1.81.52-2.22 1v6.12l-3.91 5.26V40.27h-3.74l-6.2 10.21V40.27h-2.1l-5.66 1.28v1.46l3.1.3v12.66h3.91l5.96-9.8v9.8h4.38M8.85 53.99h.87c3.16 0 4.91-1.93 4.91-5.78 0-3.21-1.4-4.97-4.03-4.97-.35 0-.88.06-1.75.24v10.5zm0 6.88l2.57.59v1.46H1.32v-1.46l2.33-.59V43.24H1.08v-1.46l6.13-1.86h1.64v2.1c2.86-1.75 3.85-2.05 5.37-2.05 3.39 0 5.96 3.16 5.96 7.54 0 5.02-3.45 8.46-8.7 8.46-.59 0-1.58-.06-2.63-.12v5.02z"/>
		</g>
	</symbol>
	<symbol id="thinkmill-centered" viewBox="0 0 175 63">
		<g fill="none" fill-rule="nonzero">
			<g transform="translate(1)">
				<use fill="#E5E5E5" xlink:href="#thinkmill-a"/>
				<use fill="#FFF" xlink:href="#thinkmill-a"/>
			</g>
			<g transform="translate(1)">
				<use fill="#E5E5E5" xlink:href="#thinkmill-b"/>
				<use fill="#FFF" xlink:href="#thinkmill-b"/>
			</g>
		</g>
	</symbol>
	<symbol id="atlassian" viewBox="0 0 225 63" preserveAspectRatio="xMidYMin">
		<g fill="#FFF" fill-rule="nonzero">
			<path d="M8.57 13.27a.78.78 0 0 0-1.33.15L.51 27.06a.82.82 0 0 0 .03.79c.15.24.4.39.69.39h9.37c.31 0 .6-.17.72-.45 2.03-4.24.8-10.68-2.75-14.52zM13.5.86a18.2 18.2 0 0 0-1.03 17.77L17 27.79a.8.8 0 0 0 .72.45h9.38a.8.8 0 0 0 .68-.4.82.82 0 0 0 .04-.78L14.88.86a.76.76 0 0 0-.69-.43c-.29 0-.55.17-.68.43zM123.5 11.8c0 3.38 1.54 6.06 7.59 7.24 3.6.77 4.36 1.36 4.36 2.58 0 1.18-.75 1.95-3.3 1.95a18.44 18.44 0 0 1-8.76-2.4v5.5c1.82.9 4.23 1.91 8.7 1.91 6.32 0 8.83-2.85 8.83-7.1m0 0c0-4-2.1-5.88-8.01-7.17-3.27-.73-4.06-1.47-4.06-2.51 0-1.32 1.17-1.88 3.34-1.88 2.61 0 5.19.8 7.63 1.91V6.58A17.06 17.06 0 0 0 132.36 5c-5.84 0-8.87 2.58-8.87 6.79M204.75 5.36v22.88h4.82V10.79l2.03 4.63 6.8 12.82h6.05V5.36h-4.81v14.76l-1.82-4.28-5.47-10.48zM168.88 5.36h5.26v22.88h-5.26zM162.82 21.48c0-4-2.1-5.88-8.01-7.17-3.27-.73-4.06-1.47-4.06-2.51 0-1.32 1.17-1.88 3.33-1.88 2.62 0 5.2.8 7.64 1.91V6.58A17.06 17.06 0 0 0 154.26 5c-5.85 0-8.87 2.58-8.87 6.79 0 3.38 1.54 6.06 7.6 7.24 3.6.77 4.36 1.36 4.36 2.58 0 1.18-.76 1.95-3.3 1.95a18.44 18.44 0 0 1-8.77-2.4v5.5c1.82.9 4.23 1.91 8.7 1.91 6.33 0 8.84-2.85 8.84-7.1M82.63 5.36v22.88h10.81l1.7-4.95h-7.22V5.36zM61.27 5.36v4.94h5.85v17.94h5.29V10.3h6.26V5.36zM53.6 5.36h-6.94l-7.88 22.88h6.02l1.11-3.86c2.75.82 5.68.82 8.43 0l1.11 3.86h6.02L53.6 5.36zm-3.47 14.9c-.98 0-1.96-.14-2.9-.42l2.9-9.99 2.9 9.99c-.95.28-1.92.42-2.9.42zM112.08 5.36h-6.94l-7.87 22.88h6.01l1.12-3.86c2.75.82 5.67.82 8.42 0l1.12 3.86h6.01l-7.87-22.88zm-3.47 14.9c-.98 0-1.95-.14-2.9-.42l2.9-9.99 2.9 9.99c-.94.28-1.92.42-2.9.42zM193.1 5.36h-6.94l-7.88 22.88h6.02l1.12-3.86c2.75.82 5.67.82 8.42 0l1.12 3.86h6.01L193.1 5.36zm-3.47 14.9c-.98 0-1.96-.14-2.9-.42l2.9-9.99 2.9 9.99c-.95.28-1.92.42-2.9.42z"/>
		</g>
	</symbol>
	<symbol id="ansarada" viewBox="0 0 225 63" preserveAspectRatio="xMidYMin">
		<g fill="#FFF" fill-rule="nonzero">
			<path d="M6.47 28.26a6.47 6.47 0 0 1-6.43-6.5c0-3.6 2.88-6.51 6.43-6.51h6.47v6.5c0 1.73-.69 3.39-1.9 4.61a6.41 6.41 0 0 1-4.57 1.9zM14.43 13.72V.94a12.2 12.2 0 0 1 9 3.66 12.5 12.5 0 0 1 3.56 9.12H14.43zM20.93 27.96a6.18 6.18 0 0 1-4.55-1.7 6.33 6.33 0 0 1-1.95-4.5v-6.5h12.56v12.71l-6.06-.01z"/>
			<ellipse cx="6.47" cy="7.2" rx="6.43" ry="6.5"/>
			<path d="M48.64 17.2v-.97c0-2.39-1.36-3.63-3.89-3.63a3.75 3.75 0 0 0-3.5 2.51h-4.71V8.67h4.7v1.96h.35a6.79 6.79 0 0 1 5.11-2.28c5.08 0 7.67 2.51 7.67 7.99v7.76h2.36v3.86h-7.9v-2.39h-.42a7.5 7.5 0 0 1-5.84 2.76c-4.27 0-6.98-2.55-6.98-6.14s2.72-6.14 7.36-6.14c1.83-.06 3.64.35 5.27 1.2l.42-.05zm-7.26 4.88c0 1.38 1.19 2.76 3.7 2.76 2.51 0 3.7-1.38 3.7-2.76s-1.19-2.76-3.7-2.76c-2.51 0-3.7 1.38-3.7 2.76zM72.1 8.35c3.86 0 6 2.76 6 6.6v9.15h2.4v3.86h-8.2V16.38c0-2.23-1.14-3.28-2.97-3.28a2.8 2.8 0 0 0-2.29.9 2.88 2.88 0 0 0-.72 2.38v7.73h3.12v3.86H58.26v-3.86h2.33v-11.6h-2.73V8.68h8.28v3.12h.38a6.25 6.25 0 0 1 5.58-3.44zm14.63 18.08v1.54h-4.7v-6.76h4.7a4.49 4.49 0 0 0 4.46 3.01c1.87 0 2.73-.77 2.73-1.63 0-.85-.43-1.38-2.17-1.65l-3.97-.78c-3.48-.66-5.39-2.5-5.39-5.6 0-3.55 2.55-6.21 6.82-6.21 1.87-.08 3.7.59 5.08 1.86h.38V8.67h4.69v6.44h-4.7c-.33-1.78-2.35-2.9-4.38-2.9-2.04 0-2.56.78-2.56 1.6 0 .8.47 1.2 1.76 1.45l4.74.93c3.82.73 5.22 2.76 5.22 5.8 0 3.82-3.16 6.29-7.45 6.29a6.2 6.2 0 0 1-4.88-1.85h-.38zm26.75-9.23v-.97c0-2.39-1.36-3.63-3.89-3.63a3.75 3.75 0 0 0-3.5 2.51h-4.7V8.67h4.7v1.96h.38a6.79 6.79 0 0 1 5.11-2.28c5.08 0 7.67 2.51 7.67 7.99v7.76h2.33v3.86h-7.9v-2.39h-.38a7.5 7.5 0 0 1-5.84 2.76c-4.27 0-6.98-2.55-6.98-6.14s2.73-6.14 7.37-6.14c1.82-.06 3.64.35 5.26 1.2l.37-.05zm-7.24 4.88c0 1.38 1.18 2.76 3.7 2.76 2.5 0 3.69-1.38 3.69-2.76s-1.19-2.76-3.7-2.76c-2.5 0-3.7 1.38-3.7 2.76zm16.88 2.04h2.34v-11.6h-2.73V8.65H131v3.14h.38a5.81 5.81 0 0 1 5.46-3.14h.68v6.45h-4.45c-1.25 0-1.87.58-1.87 2.12v6.9h3.14V28h-11.24l.01-3.87zm28.56-6.9v-.96c0-2.39-1.37-3.63-3.9-3.63a3.75 3.75 0 0 0-3.5 2.5h-4.69V8.66h4.7v1.98h.37a6.79 6.79 0 0 1 5.12-2.28c5.08 0 7.67 2.51 7.67 7.99v7.76h2.33v3.86h-7.9v-2.39h-.38a7.5 7.5 0 0 1-5.84 2.76c-4.27 0-6.98-2.55-6.98-6.14s2.72-6.14 7.36-6.14c1.83-.06 3.64.35 5.27 1.2l.37-.03zm-7.26 4.86c0 1.38 1.19 2.76 3.7 2.76 2.5 0 3.7-1.38 3.7-2.76s-1.2-2.76-3.7-2.76c-2.51 0-3.7 1.31-3.7 2.76zm29.7-11.2V5.38h-2.94V.94h8.7V23.6h2.34v4.36h-7.56v-2.62h-.38a7.45 7.45 0 0 1-5.73 2.94c-5.22 0-8.51-4.21-8.51-9.97 0-5.75 3.29-9.96 8.51-9.96 2 .08 3.88.99 5.2 2.51l.37.03zm.15 7.46c0-3.55-1.45-5.84-3.97-5.84-2.53 0-4.16 2.28-4.16 5.84s1.63 5.84 4.16 5.84c2.52 0 3.95-2.32 3.95-5.87l.02.03zm22.25-1.12v-.96c0-2.39-1.37-3.63-3.9-3.63a3.75 3.75 0 0 0-3.5 2.5h-4.7V8.66h4.69v1.98h.38a6.79 6.79 0 0 1 5.12-2.28c5.07 0 7.66 2.51 7.66 7.99v7.76h2.34v3.86h-7.9v-2.39h-.38a7.5 7.5 0 0 1-5.84 2.76c-4.3-.05-7.03-2.6-7.03-6.25 0-3.64 2.73-6.14 7.37-6.14 1.83-.06 3.64.35 5.26 1.2l.43.08zm-7.26 4.86c0 1.38 1.19 2.76 3.7 2.76 2.5 0 3.7-1.38 3.7-2.76s-1.2-2.76-3.7-2.76c-2.51 0-3.7 1.31-3.7 2.76z"/>
		</g>
	</symbol>
	<symbol id="lendi" viewBox="0 0 225 63" preserveAspectRatio="xMidYMin">
		<g fill="#FFF" fill-rule="evenodd">
			<path d="M115 11h2.57a2.47 2.47 0 0 1 2.43 2.47V15h-5v-4zM44 11h2.57c.64-.02 1.26.24 1.72.7.47.46.73 1.12.7 1.8V37H44V11z"/>
			<path fill-rule="nonzero" d="M65.02 31.4h3.68a8.32 8.32 0 0 1-3.07 4.84A9.12 9.12 0 0 1 59.9 38c-2.79 0-4.97-.94-6.54-2.81-1.57-1.82-2.35-4.42-2.35-7.8 0-3.23.76-5.76 2.28-7.58 1.57-1.87 3.75-2.81 6.54-2.81 2.94 0 5.22.9 6.82 2.73C68.21 21.6 69 24.2 69 27.53v.83c0 .18-.02.36-.07.53H56.2c.05 1.57.42 2.73 1.1 3.49.64.8 1.6 1.21 2.87 1.21a4.09 4.09 0 0 0 2.53-.8l.41-.41c.13-.25.32-.46.55-.6.4-.29.88-.42 1.36-.39zm-8.82-5.9h7.5a5.04 5.04 0 0 0-1.02-3.03 3.57 3.57 0 0 0-2.73-1.06 3.53 3.53 0 0 0-2.64 1.06c-.7.7-1.06 1.7-1.1 3.03z"/>
			<path d="M90 38h-2.72a2.52 2.52 0 0 1-2.63-2.63v-10.5c0-1.23-.38-2.13-1.13-2.7a4.09 4.09 0 0 0-5 0c-.71.57-1.07 1.47-1.07 2.7V38H72V25.95c0-3.5.92-5.84 2.75-7.02A12.05 12.05 0 0 1 80.84 17c2.22-.01 4.4.61 6.28 1.8 1.92 1.18 2.88 3.57 2.88 7.15V38z"/>
			<path fill-rule="nonzero" d="M105.83 11h2.59c.7 0 1.36.29 1.83.81.47.48.74 1.13.75 1.81v15.03c0 3.65-1.04 6.12-3.12 7.4a12.62 12.62 0 0 1-6.75 1.95 11.8 11.8 0 0 1-3.88-.66 6.35 6.35 0 0 1-3.05-2.12c-1.47-1.9-2.2-4.5-2.2-7.79 0-3.24.73-5.84 2.2-7.79a7.03 7.03 0 0 1 5.86-3 7 7 0 0 1 3.34.77c.99.6 1.82 1.41 2.43 2.4V11zm-8.66 16.2c0 2.06.38 3.63 1.14 4.7a3.76 3.76 0 0 0 3.27 1.63 3.69 3.69 0 0 0 3.2-1.62c.7-1.08 1.05-2.65 1.05-4.71 0-1.85-.38-3.31-1.14-4.4a3.95 3.95 0 0 0-3.27-1.54 3.61 3.61 0 0 0-3.11 1.62c-.76 1.03-1.14 2.47-1.14 4.32z"/>
			<path d="M115 17h2.57a2.51 2.51 0 0 1 2.43 2.56V37h-5V17z"/>
			<path fill-rule="nonzero" d="M37.5 11.12L21.64.56a3.38 3.38 0 0 0-3.7-.02L1.53 11.09A3.33 3.33 0 0 0 0 13.9v20.78C0 36.5 1.5 38 3.36 38h32.28C37.5 38 39 36.5 39 34.67V13.89c0-1.11-.56-2.15-1.5-2.77zm-5.22 20.22h-9.42v-9.7h-6.7v9.7H6.71V15.7l13-8.37 12.56 8.34v15.67z"/>
		</g>
	</symbol>
	<symbol id="pwc" viewBox="0 0 225 63" preserveAspectRatio="xMidYMin">
		<g fill="#FFF" fill-rule="nonzero">
			<path d="M83 27.02H52.84V19.3H83z"/>
			<path d="M79.08 27.02H52.84V7.71h26.24z"/>
			<path d="M68.24 27.02h-15.4V0h15.4z"/>
			<path d="M71.27 27.02H52.84V3.01h18.43v24.01z"/>
			<path d="M52.84 3.02v23.99h15.4V3.02zM37.4 27.02h15.44v3.85H37.4z"/>
			<path d="M52.84 7.71v19.3h18.44V7.71z"/>
			<path d="M52.84 7.71v19.3h15.4V7.71z"/>
			<path d="M62.47 27.02h-9.63V15.43h9.63z"/>
			<path d="M52.84 19.3v7.71h26.25V19.3z"/>
			<path d="M52.84 19.3v7.71h18.44V19.3z"/>
			<path d="M52.84 19.3v7.71h15.4V19.3z"/>
			<path d="M52.84 19.3v7.71h9.64V19.3zM56.2 41.55c-2.63.47-4.03 2.45-4.03 5.9 0 3.5 1.87 5.83 4.61 5.83 1.34 0 2.51-.46 4.97-1.69v2.86c-2.98 1.4-4.73 1.75-7.07 1.75-2.63 0-4.5-.64-5.96-2.21a7.97 7.97 0 0 1-2.33-5.78c0-4.97 3.74-8.41 9.17-8.41 3.56 0 6.07 1.7 6.07 4.09 0 1.57-1.17 2.68-2.86 2.68-.88 0-1.58-.3-2.57-.82M43.06 48.2c2.4-2.97 3.27-4.2 3.27-5.66a2.75 2.75 0 0 0-2.8-2.74c-.94 0-1.81.52-2.22 1v6.12l-3.91 5.26V40.27h-3.74l-6.2 10.21V40.27h-2.1l-5.66 1.28v1.46l3.1.3v12.66h3.91l5.96-9.8v9.8h4.38M7.85 53.99h.87c3.16 0 4.91-1.93 4.91-5.78 0-3.21-1.4-4.97-4.03-4.97-.35 0-.88.06-1.75.24v10.5zm0 6.88l2.57.59v1.46H.32v-1.46l2.33-.59V43.24H.08v-1.46l6.13-1.86h1.64v2.1c2.86-1.75 3.85-2.05 5.37-2.05 3.39 0 5.96 3.16 5.96 7.54 0 5.02-3.45 8.46-8.7 8.46-.59 0-1.58-.06-2.63-.12v5.02z"/>
		</g>
	</symbol>
	<symbol id="interplay" viewBox="0 0 225 63" preserveAspectRatio="xMidYMin">
		<g fill="#FFF" fill-rule="evenodd">
			<path d="M0 27.68h6.29V.54H0zM28.93 15.77v11.9H22.9v-10.9c0-1.7-1.24-2.97-3-2.97-1.77 0-3.2 1.27-3.2 2.96v10.92H10.6V8.86h6.1v2.3a6.93 6.93 0 0 1 5.42-2.68c3.77 0 6.81 3.15 6.81 7.3zM40.17 13.52v6.72c0 1.56.9 2.55 2.2 2.55h2.28v4.65c-.48.33-1.76.62-3.05.62-4.04 0-7.47-3.11-7.47-7.1v-7.44h-3.2V8.86h3.2V1.54h6.04v7.32h4.53v4.66h-4.53zM53.46 15.63h7.9c-.61-1.64-1.8-2.58-3.85-2.58-2.14 0-3.43.98-4.05 2.58zm14.2 3.63H53.07c.24 2.68 1.67 4.33 4.43 4.33 2.1 0 3.48-.9 4-2.4h5.86c-.96 4.09-4.48 6.87-9.77 6.87-6.38 0-10.66-3.91-10.66-9.8 0-5.87 4.33-9.83 10.47-9.83 6.15 0 10.24 3.91 10.24 9.8v1.03zM83.94 8.67v5.32a8.32 8.32 0 0 0-1.76-.2c-3 0-5.14 1.8-5.14 4.9v8.99h-6.1V8.86h6.1v2.59a6.33 6.33 0 0 1 6.9-2.78zM101.32 18.27c0-2.5-2-4.47-4.52-4.47a4.47 4.47 0 1 0 0 8.94 4.47 4.47 0 0 0 4.52-4.47zm6.05 0c0 5.46-4.14 9.79-9.38 9.79-2.2 0-4-.76-5.43-2.03v9.76l-6.1-.04V8.85l6.1.06v1.6a7.95 7.95 0 0 1 5.43-2.03c5.24 0 9.38 4.33 9.38 9.79zM110.7 27.68h6.1V.54h-6.1zM135.28 18.27a4.5 4.5 0 0 0-4.53-4.47 4.47 4.47 0 1 0 0 8.94 4.5 4.5 0 0 0 4.53-4.47zm8.28 4.52v4.89c-.43.19-1 .38-1.62.38a6.74 6.74 0 0 1-5.85-3.2 8.02 8.02 0 0 1-6.53 3.2c-5.28 0-9.43-4.33-9.43-9.8 0-5.45 4.15-9.78 9.43-9.78 2.2 0 4 .75 5.43 2.02V8.86h6.05v12.1c0 1.54.86 1.83 1.67 1.83h.85zM166.09 8.86l-11.02 26.93h-6.39l3.31-7.69-7.95-19.24h6.34l4.76 12.47 4.66-12.47zM179.48 22.2a5.51 5.51 0 0 1-5.55 5.48 5.51 5.51 0 0 1-5.55-5.48 5.51 5.51 0 0 1 5.55-5.48 5.51 5.51 0 0 1 5.55 5.48z"/>
		</g>
	</symbol>
	<symbol id="invision" viewBox="0 0 225 63" preserveAspectRatio="xMidYMin">
		<path fill="#FFF" fill-rule="nonzero" d="M57.42 14.7h3.93v17.13h-3.93V14.7zm14.3 7.01c-2-.65-3.85-1.17-3.85-2.4v-.06c0-1 .87-1.72 2.4-1.72.83.02 1.65.18 2.42.47l.03.01.22.09c.62.2 2.3.45 3.7-1.74a11.82 11.82 0 0 0-6.28-1.94c-3.39 0-6.07 1.98-6.07 5.22v.06c0 3.28 2.82 4.31 5.34 5.03 2 .61 3.82 1.07 3.82 2.4v.06c0 1.14-.97 1.85-2.65 1.85a8.46 8.46 0 0 1-3.57-.87c-.35-.15-2.17-.78-3.74 1.45 2.07 1.6 4.6 2.5 7.21 2.53 3.56 0 6.34-1.78 6.34-5.38v-.06c0-3.09-2.82-4.22-5.31-5zm32.58 1.56c0 4.9-3.88 8.95-9.16 8.95a8.85 8.85 0 0 1-9.06-8.89 8.97 8.97 0 0 1 9.14-8.98c5.23 0 9.09 3.99 9.09 8.92h-.01zm-3.92.06c0-3.04-2.16-5.54-5.23-5.54-3.14 0-5.15 2.46-5.15 5.48 0 3.05 2.17 5.54 5.21 5.54 3.17 0 5.18-2.46 5.18-5.48zm-20.76 8.5h3.92V14.7h-3.92v17.12zm36.3-17.48c-2.65 0-4.24 1.4-5.34 3.02V14.7h-3.91v17.12h3.91v-9.67c0-2.65 1.59-4.24 3.85-4.24 2.33 0 3.66 1.52 3.66 4.18v9.73H122v-10.9c0-3.99-2.23-6.58-6.08-6.58zm-60.43.36L48.5 31.96h-3.52L40.9 21.94v15.34A3.71 3.71 0 0 1 37.2 41H3.7A3.71 3.71 0 0 1 0 37.28V3.72A3.71 3.71 0 0 1 3.7 0h33.5c2.04 0 3.7 1.66 3.7 3.72V14.7h1.26l4.6 12.59 4.62-12.59h4.11zm-44.32-4.28a2.5 2.5 0 0 0 4.25 1.83 2.5 2.5 0 0 0-3.51-3.58c-.47.46-.74 1.1-.74 1.75zm24.06 16.4l-1.61-.63c-.81 2.24-1.5 2.65-2.06 2.65-.55 0-.85-.37-.85-1.1.02-.4.08-.78.19-1.15l1.17-4.24c.27-.87.4-1.77.41-2.68 0-3.17-1.91-4.82-4.23-4.82-2.16 0-4.37 1.97-5.47 4.02l.8-3.7h-6.27l-.89 3.26h2.95l-1.81 7.27c-1.42 3.16-4.03 3.22-4.36 3.14-.54-.12-.88-.33-.88-1.02.01-.57.1-1.14.25-1.69l2.75-10.96H8.34l-.88 3.26h2.9L8.5 26.12a8.5 8.5 0 0 0-.22 1.85c0 2.17 1.17 3.62 3.67 3.62 2.07 0 3.75-1.24 4.96-3.23l-.73 2.97h4.12l2.35-9.45c.58-2.4 1.72-3.64 3.45-3.64 1.36 0 2.2.85 2.2 2.25.01.45-.05.9-.18 1.32l-1.22 4.35c-.17.6-.26 1.22-.25 1.84 0 2.06 1.21 3.57 3.75 3.57 2.17 0 3.89-1.4 4.84-4.75z"/>
	</symbol>
	<symbol id="expert360" viewBox="0 0 225 63" preserveAspectRatio="xMidYMin">
		<path fill="#FFF" fill-rule="nonzero" d="M103.83 48.84h-1.88c-2.2-.15-4.57-.63-6.61-1.25-.16 0-.32-.16-.47-.16l-.32-.16-.47-.15c-.16 0-.16 0-.32-.16h-.15c-.32-.16-.63-.32-.95-.32-.15 0-.31-.15-.47-.15h-.16a25.96 25.96 0 0 1-9.12-7.38c-.16-.16-.32-.48-.47-.63l-.32-.32-.15-.15c-.16-.16-.32-.47-.48-.63-.15-.16-.31-.63-.47-.63h3.3c.48 0 1.1.31 1.42.63a23.03 23.03 0 0 0 8.97 6.44l.16.15h.15c.16 0 .32.16.48.16.15 0 .31.16.47.16.31.16.47.16.78.31a31 31 0 0 0 5.51.94h2.52c1.89-.15 3.77-.47 5.5-1.1l.32-.15c.16 0 .31-.16.47-.16.16 0 .31-.16.47-.16h.16c.16 0 .31-.15.31-.15 3.3-1.42 6.3-3.46 8.5-6.28.31-.32.94-.63 1.42-.63h3.3c-.16 0-.32.31-.32.63-.15.15-.31.47-.47.62-.15.16-.15.32-.31.47-.16.16-.32.48-.47.63a25.55 25.55 0 0 1-9.76 7.54c-.16 0-.31.16-.31.16h-.16c-.47.16-1.1.47-1.57.63l-.48.15c-2.04.63-4.4 1.1-6.6 1.26h-1.42c.79-.16.63-.16.47-.16zm18.88-36.75c-.47 0-1.1-.31-1.41-.63a23.97 23.97 0 0 0-8.5-6.28c-.16 0-.31-.15-.31-.15h-.16c-.16 0-.32-.16-.47-.16-.16 0-.32-.16-.48-.16l-.31-.16a21.42 21.42 0 0 0-5.5-1.1h-2.68a31 31 0 0 0-5.5.95c-.32 0-.48.15-.8.31-.15 0-.3.16-.47.16-.15 0-.31.16-.31.16h-.47a23.03 23.03 0 0 0-8.97 6.43c-.31.32-.94.63-1.42.63h-3.3c.16-.15.32-.47.47-.63.16-.15.32-.47.47-.62l.16-.16.32-.31c.15-.16.31-.48.47-.63a27.44 27.44 0 0 1 9.12-7.38h.16c.16 0 .32-.16.47-.16.32-.16.63-.32.95-.32h.15c.16 0 .16 0 .32-.15l.47-.16s.32-.16.47-.16c.16 0 .32-.15.47-.15 2.2-.79 4.4-1.1 6.61-1.26h3.62c2.2.16 4.4.63 6.6 1.26l.48.15c.47.16 1.1.32 1.57.63h.16c.16 0 .16.16.32.16a28.6 28.6 0 0 1 9.75 7.54c.16.15.31.47.47.63.16.15.16.3.32.47.15.15.31.47.47.62.16.16.31.48.31.63h-4.09zm1.73 20.26l5.04-7.22c.63-.79.63-.63 0-1.42l-5.04-7.22h3.62c.47 0 1.1.31 1.42.79l4.4 6.6c.16.3.16.93 0 1.25l-4.4 6.6c-.32.3-.95.78-1.42.78h-3.62v-.16zM0 17.43h11.17v1.89H2.05v4.7h8.33v1.74H2.05v5.18h9.28v1.88H0V17.43zm15.42 15.4H12.9l5.35-7.86-5.03-7.54h2.51l3.94 5.97 3.77-5.97h2.52l-5.04 7.54 5.35 7.85H23.6l-4.1-6.28-4.08 6.28zm13.06-15.4h6.92c1.41 0 2.51.32 3.3 1.1a4.5 4.5 0 0 1 1.26 3.3c0 1.26-.31 2.2-1.1 3.14s-1.89 1.26-3.46 1.26h-4.72v6.44h-2.05V17.43h-.15zm8.02 2.2a5.88 5.88 0 0 0-1.89-.31h-4.09v5.34h4.1c.94 0 1.72-.16 2.2-.63.62-.47.78-1.1.78-2.04.16-1.26-.16-2.04-1.1-2.36zm6.3-2.2h11v1.89h-8.96v4.7h8.34v1.74h-8.34v5.18h9.12v1.88H42.8V17.43zm14.3 0h6.93c1.1 0 2.05.16 2.83.47 1.42.63 2.05 1.89 2.05 3.62 0 .94-.16 1.72-.63 2.2-.32.62-.95 1.1-1.57 1.4.62.32 1.1.64 1.41.95.32.47.47 1.1.47 1.89V30c0 .63 0 .94.16 1.25.16.47.31.79.63.95v.31h-2.36c0-.16-.16-.31-.16-.47 0-.16 0-.63-.15-1.26l-.16-2.51c0-.94-.47-1.73-1.1-2.04a4.53 4.53 0 0 0-1.9-.32h-4.4v6.6h-2.04V17.43zm6.62 7.07c.94 0 1.73-.16 2.2-.63.47-.31.79-1.1.79-2.04 0-1.1-.32-1.88-1.1-2.2-.48-.16-.95-.31-1.58-.31h-4.88v5.18h4.57zm19.19-7.07v1.89h-5.04v13.5h-2.2v-13.5h-5.19v-1.89h12.43zm6.13 10.37c0 .63.16 1.25.32 1.57.31.78 1.1 1.1 2.04 1.1.63 0 1.1-.16 1.58-.63.47-.47.63-1.1.63-1.88 0-1.1-.47-1.73-1.26-2.2a7.68 7.68 0 0 0-2.36-.32v-2.2c1.1 0 1.73-.15 2.2-.31a2 2 0 0 0 1.1-1.89c0-.62-.15-1.1-.47-1.57a2.4 2.4 0 0 0-1.57-.62c-.79 0-1.26.31-1.73.78-.32.47-.48 1.1-.48 1.89h-2.98c0-.79.15-1.57.47-2.36.31-.63.63-1.26 1.26-1.73l1.41-.94a7.98 7.98 0 0 1 2.05-.31c1.57 0 2.83.47 3.77 1.25a3.95 3.95 0 0 1 1.42 3.14c0 .95-.32 1.73-.79 2.36-.31.47-.78.63-1.1.78.32 0 .63.32 1.26.79a4.13 4.13 0 0 1 1.26 3.14c0 1.41-.47 2.51-1.42 3.61-.94 1.1-2.36 1.57-4.25 1.57-2.36 0-3.93-.78-4.71-2.2a6.18 6.18 0 0 1-.8-3.14h3.15v.32zm16.84-7.07c0-.31-.16-.47-.32-.78-.31-.48-.78-.79-1.57-.79-1.1 0-1.73.63-2.2 1.73a6.55 6.55 0 0 0-.47 2.82 4.9 4.9 0 0 1 1.41-1.1c.47-.15 1.1-.3 1.73-.3a4.4 4.4 0 0 1 3.46 1.4c.95.95 1.42 2.2 1.42 3.77 0 1.57-.47 2.83-1.42 3.93-.94 1.1-2.36 1.73-4.24 1.73-2.05 0-3.62-.79-4.57-2.52-.78-1.25-1.1-2.98-1.1-5.18 0-1.25 0-2.2.16-2.98a7.48 7.48 0 0 1 1.1-3.46 5.42 5.42 0 0 1 1.89-1.88 4.88 4.88 0 0 1 2.67-.79c1.58 0 2.68.32 3.62 1.1a4.35 4.35 0 0 1 1.57 3.14h-3.14v.16zm-3.78 9.11c.47.63 1.1.79 1.73.79.79 0 1.26-.32 1.73-.79.48-.47.63-1.26.63-2.04 0-.94-.15-1.73-.63-2.2a2.53 2.53 0 0 0-1.73-.79c-.47 0-1.1.16-1.41.48-.63.47-.95 1.25-.95 2.35-.15.94.16 1.57.63 2.2zm18.1-11.15c.78 1.41 1.25 3.45 1.25 6.12s-.47 4.72-1.26 6.13c-.78 1.41-2.2 2.2-4.4 2.2-2.05 0-3.46-.79-4.4-2.2-.8-1.41-1.26-3.46-1.26-6.13s.47-4.7 1.25-6.12c.8-1.41 2.2-2.2 4.41-2.2 2.2 0 3.62.79 4.4 2.2zm-6.14 10.36c.31.95.94 1.42 1.89 1.42.94 0 1.57-.47 1.89-1.42.31-.94.47-2.35.47-4.24 0-1.88-.16-3.45-.47-4.4-.32-.94-.95-1.4-1.9-1.4-.94 0-1.57.46-1.88 1.4-.32.95-.47 2.36-.47 4.4 0 1.89.15 3.3.47 4.24z"/>
	</symbol>
	<symbol id="lookahead" viewBox="0 0 225 63" preserveAspectRatio="xMidYMin">
		<g fill="#FFF" fill-rule="evenodd">
			<path d="M0 34.96h185V0H0v34.96zm1.6-1.56h181.8V1.56H1.6V33.4z"/>
			<path d="M12.91 23.72v-.88l1.83-.1V11c0-.32-.06-.7-.54-.72l-1.9-.08v-.88h6.38v.88l-1.95.1v11.85c0 .52.26.65.7.7.6.05 1.07.07 1.51.07 3 0 3.9-1.17 4.65-4.66l.66.06-.2 5.08c0 .2-.16.32-.34.32h-10.8zM39.54 16.64c0-3.99-1.17-6.66-4.03-6.66-2.85 0-3.98 2.67-3.98 6.66s1.13 6.64 3.98 6.64c2.86 0 4.03-2.65 4.03-6.64m-10.36 0c0-4.1 2.85-7.46 6.35-7.46 3.48 0 6.36 3.37 6.36 7.46 0 4.11-2.86 7.44-6.36 7.44-3.5 0-6.35-3.33-6.35-7.44M57.07 16.64c0-3.99-1.17-6.66-4.02-6.66-2.86 0-3.98 2.67-3.98 6.66s1.12 6.64 3.98 6.64c2.85 0 4.02-2.65 4.02-6.64m-10.36 0c0-4.1 2.86-7.46 6.36-7.46 3.48 0 6.35 3.37 6.35 7.46 0 4.11-2.85 7.44-6.35 7.44-3.5 0-6.36-3.33-6.36-7.44M72.86 23.72v-.88c1.34-.02 1.87-.06 1.87-.4 0-.13-.08-.3-.23-.51l-3.53-5.55c-.95 1.08-1.8 2.02-2.12 2.4v3.3c0 .52.26.66.7.68l1.72.08v.88h-6.24v-.88l1.83-.1V11c0-.32-.06-.7-.54-.72l-1.91-.08v-.88h6.25v.88l-1.8.1v7.16c.9-1.04 4.96-5.65 5.24-5.96l.02-.02c.08-.1.28-.36.28-.64 0-.54-1.34-.64-2.19-.64v-.88h6.08v.88c-1.25 0-1.9.22-3.54 1.97-.47.48-1.41 1.54-2.42 2.68.47.75 4.37 6.78 4.7 7.26.37.51.91.67 2.48.73v.88h-6.65zM89.52 12.93l-2.15 5.49h4.35l-2.2-5.49zm2.32 10.8v-.95l.76-.04c.24-.02.52-.14.52-.45 0-.1-.02-.24-.08-.4l-.9-2.5h-5.07l-.54 1.34c-.1.26-.16.52-.16.8 0 .7.94 1.25 2.49 1.25v.94h-5.3v-.94c.98-.02 1.36-.85 1.74-1.85L89.93 9.1h1.32l5.13 12.93c.2.51.69.75 1.93.75v.94h-6.47zM110.82 23.72v-.94l1.67-.08v-5.88h-5.35v5.2c0 .53.26.68.7.7l1.53.06v.94h-6.82v-.94l1.65-.08V11c0-.44-.24-.66-.62-.68l-1.57-.06v-.94h6.78v.94l-1.65.08v5.38h5.35V11c0-.32-.12-.66-.6-.68l-1.61-.06v-.94h6.77v.94l-1.62.08v11.69c0 .52.26.67.7.7l1.5.05v.94h-6.8zM122.54 23.72v-.94l1.81-.08V11c0-.32-.1-.66-.58-.68l-1.83-.06v-.94h12.3l.75 4.95-.82.1c-.99-3.4-2.74-4.27-5.05-4.27-.52 0-1.15.04-1.8.06v5.66h.15c2.17 0 2.65-1.21 2.98-2.93h.8v7.02h-.8c-.17-1.97-1.1-3.17-2.84-3.19h-.28v5.43c0 .52.26.65.7.7.6.05.93.05 1.37.05 2.53 0 3.74-1.1 4.85-4.58l.74.06-.2 5.02c0 .2-.16.32-.34.32h-11.9zM145.43 12.93l-2.15 5.49h4.34l-2.2-5.49zm2.31 10.8v-.95l.76-.04c.25-.02.53-.14.53-.45 0-.1-.02-.24-.08-.4l-.9-2.5h-5.08l-.54 1.34c-.1.26-.16.52-.16.8 0 .7.95 1.25 2.5 1.25v.94h-5.32v-.94c.99-.02 1.37-.85 1.75-1.85l4.63-11.83h1.33l5.13 12.93c.2.51.68.75 1.93.75v.94h-6.48zM169.01 16.32c0-3.7-1.14-6.12-4.14-6.12-.54 0-1.77.04-1.77.04v11.88c0 .52.26.66.7.7.37.04.57.04.93.04 3.1 0 4.28-2.15 4.28-6.54zm-10.73 7.4v-.94l1.83-.08V11c0-.32-.1-.66-.59-.68l-1.79-.06v-.94h7.44c4.4 0 7.08 2.65 7.08 7.04 0 5.29-3.03 7.36-6.7 7.36h-7.27z"/>
		</g>
	</symbol>
	<symbol id="thinkmill" viewBox="0 0 225 63" preserveAspectRatio="xMidYMin">
		<g fill="none" fill-rule="nonzero">
			<use fill="#E5E5E5" xlink:href="#thinkmill-a"/>
			<use fill="#FFF" xlink:href="#thinkmill-a"/>
			<use fill="#E5E5E5" xlink:href="#thinkmill-b"/>
			<use fill="#FFF" xlink:href="#thinkmill-b"/>
		</g>
	</symbol>
</svg>
