<svg xmlns="http://www.w3.org/2000/svg" xmlns:xlink="http://www.w3.org/1999/xlink">
	<defs>
		<path id="invision-a" d="M53.66 0H5.34A5.34 5.34 0 0 0 0 5.34v48.32C0 56.6 2.4 59 5.34 59h48.32C56.6 59 59 56.6 59 53.66V5.34C59 2.4 56.6 0 53.66 0zM19.72 11.6a3.54 3.54 0 1 1-.13 7.08 3.54 3.54 0 0 1 .13-7.08zM43.8 45.55c-3.65 0-5.4-2.17-5.4-5.14 0-.9.12-1.79.37-2.65l1.75-6.25c.18-.62.27-1.26.26-1.9 0-2.02-1.22-3.24-3.18-3.24-2.49 0-4.13 1.74-4.98 5.2L29.25 45.1H23.3l1.07-4.22c-1.75 2.85-4.17 4.66-7.15 4.66-3.6 0-5.3-2.06-5.3-5.2.01-.88.12-1.76.32-2.63l2.7-11h-4.19l1.28-4.7H22.1l-3.98 15.74c-.22.79-.34 1.6-.37 2.41 0 1.01.5 1.3 1.28 1.48.47.1 4.23.05 6.28-4.5l2.6-10.42h-4.24l1.27-4.7H34l-1.17 5.3c1.6-2.97 4.77-5.8 7.9-5.8 3.33 0 6.09 2.36 6.09 6.93 0 1.3-.2 2.6-.56 3.85l-1.7 6.09c-.15.54-.24 1.1-.26 1.65 0 1.06.42 1.59 1.21 1.59.8 0 1.8-.58 2.97-3.81l2.33.9c-1.39 4.8-3.88 6.82-7 6.82z"/>
		<path id="expert360-a" d="M104.55 49.47h-.42c-.3 0-.58 0-.89-.03l-.46-.04a27.2 27.2 0 0 1-6.73-1.3c-.16-.04-.27-.12-.43-.16-.03-.04-.34-.11-.38-.15l-.39-.16-.3-.11-.12-.04c-.3-.11-.62-.27-.88-.38l-.47-.23-.11-.08a27.38 27.38 0 0 1-9.28-7.36c-.15-.19-.3-.42-.5-.6a2.1 2.1 0 0 0-.27-.35l-.07-.12-.47-.65c-.15-.2-.26-.61-.38-.61h3.39c.5 0 1.19.3 1.46.65a23.2 23.2 0 0 0 9.04 6.51l.12.08h.15c.16.04.27.11.43.15.15.08.34.12.5.2.27.07.53.19.8.26 1.77.54 3.62.85 5.5.92h1.74c.3 0 .62-.04.88-.04 1.93-.11 3.81-.5 5.58-1.07l.39-.11c.15-.04.3-.12.46-.16.16-.04.3-.11.46-.19l.16-.08c.11-.03.27-.11.38-.15a22.68 22.68 0 0 0 8.62-6.32c.31-.35 1-.65 1.47-.65h3.38c-.11 0-.27.38-.38.6l-.46.7-.35.46c-.16.23-.35.46-.5.65-2.62 3.3-6 5.9-9.82 7.63-.11.07-.26.11-.38.15l-.15.08c-.54.23-1.08.42-1.62.61l-.42.15a28 28 0 0 1-6.7 1.3l-.42.04c-.31 0-.58.04-.89.04 0-.04-.11-.04-.27-.04.04 0 0 0 0 0zm19.1-37.02c-.51 0-1.2-.3-1.47-.69a23 23 0 0 0-8.66-6.36c-.12-.03-.23-.11-.39-.15l-.15-.08c-.15-.07-.35-.11-.5-.19-.12-.04-.27-.11-.42-.15l-.39-.12c-1.8-.57-3.7-.95-5.62-1.07-.3 0-.61-.04-.88-.04h-1.73c-1.89.12-3.74.42-5.5.92-.28.08-.55.16-.82.27-.19.08-.34.15-.53.2-.12.03-.27.15-.39.15h-.15l-.12.07a22.82 22.82 0 0 0-9.04 6.52c-.31.34-1 .65-1.46.65h-3.4l.4-.62.46-.68.07-.12.23-.34c.16-.23.35-.43.5-.66a26.1 26.1 0 0 1 9.24-7.35l.12-.04.46-.23c.3-.16.61-.27.92-.39l.08-.03.3-.12.43-.15s.35-.12.42-.16a26.86 26.86 0 0 1 7.16-1.46l.42-.03h1.66c.3 0 .61 0 .88.04l.47.04c2.27.15 4.5.57 6.7 1.3l.42.15 1.61.62.16.07c.11.04.23.12.34.16a26.87 26.87 0 0 1 10.32 8.27l.34.46.46.7c.12.18.27.38.39.6h-3.35v.04z"/>
		<path id="expert360-b" d="M125.61 32.98l5.12-7.24c.58-.8.58-.62 0-1.42L125.61 17h3.62c.43 0 1.12.38 1.43.8l4.42 6.6c.23.3.23.88 0 1.18l-4.42 6.63c-.31.39-.97.77-1.39.77h-3.66zM0 18.11h11.2V20H2.04v4.67h8.47v1.77H2.04v5.25h9.35v1.84H0v-15.4zm15.47 15.4h-2.5l5.46-7.89-5.11-7.5h2.61l3.89 5.9 3.89-5.9h2.5l-5.12 7.5 5.39 7.9H23.9l-4.12-6.33-4.3 6.33zm13.28-15.4h6.93a4.7 4.7 0 0 1 3.3 1.15c.85.77 1.28 1.84 1.28 3.26 0 1.19-.39 2.26-1.12 3.14-.77.88-1.89 1.34-3.46 1.34h-4.82v6.52H28.8v-15.4h-.04zm8.12 2.1a4.3 4.3 0 0 0-1.89-.3h-4.15v5.33h4.15c.93 0 1.7-.2 2.27-.61.58-.39.89-1.12.89-2.11 0-1.11-.42-1.88-1.27-2.3zm6.27-2.1h11.2V20h-9.16v4.67h8.47v1.77h-8.47v5.25h9.35v1.84H43.14v-15.4zm14.4 0h7.04c1.15 0 2.11.15 2.85.5 1.42.65 2.15 1.88 2.15 3.64 0 .92-.2 1.69-.58 2.26a4.17 4.17 0 0 1-1.61 1.42c.61.23 1.04.57 1.34.96.31.38.47 1.03.5 1.95l.08 2.07c.04.58.08 1.04.16 1.3.11.5.34.8.69.96v.35h-2.58c-.08-.12-.12-.31-.15-.5-.04-.2-.08-.61-.12-1.23l-.12-2.57c-.03-1-.42-1.68-1.07-2.03-.39-.19-1-.26-1.85-.26h-4.62v6.59h-2.08v-15.4h-.04zm6.8 7.05c.97 0 1.7-.19 2.28-.57.54-.39.84-1.11.84-2.11 0-1.11-.38-1.84-1.15-2.26-.42-.2-.96-.3-1.66-.3h-5v5.24h4.7zm19.36-7.05v1.84h-5.2v13.57h-2.1V19.95h-5.2v-1.84h12.5z"/>
		<path id="expert360-c" d="M90.08 28.46c0 .65.11 1.19.3 1.6.4.81 1.12 1.2 2.12 1.2.62 0 1.2-.23 1.66-.66.46-.42.7-1.03.7-1.84 0-1.07-.43-1.8-1.32-2.14a6.9 6.9 0 0 0-2.35-.3v-2.3c1.04 0 1.78-.12 2.2-.31.7-.31 1.08-.96 1.08-1.92 0-.61-.2-1.11-.54-1.53-.35-.39-.89-.58-1.54-.58-.77 0-1.31.23-1.66.73a2.91 2.91 0 0 0-.5 1.92h-3c.04-.8.15-1.57.42-2.3.27-.65.7-1.23 1.24-1.77a4.2 4.2 0 0 1 1.5-.88c.57-.19 1.27-.3 2.11-.3 1.58 0 2.81.42 3.77 1.18a4 4 0 0 1 1.43 3.26 3.5 3.5 0 0 1-1.96 3.26c.3 0 .73.27 1.27.77.8.76 1.23 1.8 1.23 3.1 0 1.38-.46 2.6-1.43 3.64-.96 1.04-2.38 1.57-4.23 1.57-2.3 0-3.93-.76-4.81-2.26a6.64 6.64 0 0 1-.77-3.14h3.08zm16.97-7.17c0-.27-.11-.53-.3-.88-.35-.5-.9-.77-1.59-.77-1.03 0-1.77.58-2.23 1.77-.23.65-.42 1.6-.5 2.83.39-.46.85-.8 1.39-1.03.54-.23 1.11-.3 1.8-.3 1.47 0 2.66.49 3.59 1.45a5.2 5.2 0 0 1 1.38 3.75c0 1.54-.46 2.88-1.35 4.03-.92 1.15-2.3 1.72-4.23 1.72a4.8 4.8 0 0 1-4.54-2.57 10.3 10.3 0 0 1-1.15-5.17c0-1.23.03-2.26.15-3.03.2-1.38.54-2.53 1.08-3.45a5.14 5.14 0 0 1 4.54-2.64c1.5 0 2.73.38 3.62 1.15.88.77 1.42 1.8 1.53 3.1h-3.19v.04zm-3.8 9.16c.45.54 1.07.84 1.8.84s1.27-.26 1.7-.8c.42-.54.6-1.23.6-2.07 0-.96-.22-1.69-.68-2.18a2.28 2.28 0 0 0-1.74-.77c-.53 0-1.04.15-1.46.5-.61.5-.96 1.26-.96 2.37 0 .85.27 1.57.73 2.11zm18.35-11.19c.84 1.46 1.27 3.53 1.27 6.2 0 2.7-.43 4.76-1.27 6.22-.85 1.45-2.31 2.18-4.39 2.18-2.08 0-3.54-.73-4.39-2.18-.84-1.46-1.27-3.53-1.27-6.21s.43-4.75 1.27-6.2c.85-1.47 2.31-2.2 4.4-2.2 2.07 0 3.53.73 4.38 2.2zm-6.28 10.5c.31 1 .93 1.5 1.9 1.5.95 0 1.57-.5 1.88-1.5.3-1 .46-2.41.46-4.3 0-1.95-.16-3.4-.46-4.36-.31-.96-.93-1.42-1.89-1.42-.96 0-1.58.46-1.89 1.42-.3.96-.46 2.38-.46 4.37 0 1.88.16 3.3.46 4.3z"/>
		<path id="thinkmill-a" d="M30.45 59.87c-16.57 0-30-13.22-30-29.53 0-16.3 13.43-29.53 30-29.53C47 .81 60.44 14.03 60.44 30.34c0 16.31-13.43 29.53-30 29.53zm0-4.08c14.27 0 25.84-11.4 25.84-25.45C56.3 16.3 44.72 4.9 30.45 4.9 16.17 4.9 4.6 16.3 4.6 30.34 4.6 44.4 16.17 55.8 30.45 55.8zm-7.7-19.72c.33 0 .69-.05.9-.13v2.23c-.44.12-1.1.22-1.64.22-2.71 0-3.9-1.12-3.9-3.9v-6.78h-2.17v-2.17h2.16v-3.18H21v3.18h2.51v2.17H21v6.36c0 1.42.48 2 1.75 2zm17.79-10.83c2.74 0 4.42 1.75 4.42 5.17v7.83h-2.9V30.7c0-2.25-.89-3.15-2.34-3.15-1.7 0-2.72 1.42-2.72 3.85v6.85h-2.9V30.4c0-1.8-.8-2.85-2.3-2.85-1.73 0-2.72 1.45-2.72 3.9v6.8h-2.9v-12.7h2.77v1.52H29a4.2 4.2 0 0 1 3.58-1.82c1.78 0 3.15.8 3.81 2.3a4.57 4.57 0 0 1 4.15-2.3z"/>
		<path id="thinkmill-b" d="M87.64 23.3v-2.49h-14.3v2.5h5.7v14.57h2.9V23.3h5.7zm4.55 3.84V20.8H89.4v17.07h2.78v-6.76c0-2.33 1.24-3.5 2.82-3.5 1.56 0 2.5.86 2.5 3.04v7.22h2.78v-7.46c0-3.33-1.7-5-4.5-5a4.3 4.3 0 0 0-3.56 1.72h-.04zm14.07-3.72v-2.61h-2.78v2.61h2.78zm0 14.46V25.7h-2.78v12.18h2.78zm9.68-12.47c-1.63 0-2.92.77-3.7 1.87h-.05V25.7h-2.63v12.18h2.78v-6.76c0-2.33 1.24-3.5 2.82-3.5 1.56 0 2.51.86 2.51 3.04v7.22h2.78v-7.46c0-3.33-1.7-5-4.5-5zm18.85 12.47l-5.7-6.62 5.11-5.56h-3.24l-4.5 4.99h-.05V20.8h-2.78v17.07h2.78v-5.9h.05l4.82 5.9h3.5zM149.6 25.4c-1.87 0-3.07.82-3.97 2.2-.63-1.43-1.95-2.2-3.65-2.2-1.46 0-2.56.58-3.43 1.75h-.05V25.7h-2.66v12.18h2.78v-6.52c0-2.35.95-3.74 2.6-3.74 1.44 0 2.22 1 2.22 2.73v7.53h2.78V31.3c0-2.33.97-3.7 2.6-3.7 1.39 0 2.24.87 2.24 3.03v7.24h2.78v-7.5c0-3.29-1.61-4.97-4.24-4.97zm10.2-1.99v-2.61h-2.78v2.61h2.78zm0 14.46V25.7h-2.78v12.18h2.78zm6.08 0V20.8h-2.77v17.07h2.77zm6.09 0V20.8h-2.78v17.07h2.78z"/>
	</defs>

	<symbol id="atlassian-centered" viewBox="0 0 225 31">
		<g fill="#FFF" fill-rule="nonzero">
			<path d="M8.57 13.27a.78.78 0 0 0-1.33.15L.51 27.06a.82.82 0 0 0 .03.79c.15.24.4.39.69.39h9.37c.31 0 .6-.17.72-.45 2.03-4.24.8-10.68-2.75-14.52zM13.5.86a18.2 18.2 0 0 0-1.03 17.77L17 27.79a.8.8 0 0 0 .72.45h9.38a.8.8 0 0 0 .68-.4.82.82 0 0 0 .04-.78L14.88.86a.76.76 0 0 0-.69-.43c-.29 0-.55.17-.68.43zM123.5 11.8c0 3.38 1.54 6.06 7.59 7.24 3.6.77 4.36 1.36 4.36 2.58 0 1.18-.75 1.95-3.3 1.95a18.44 18.44 0 0 1-8.76-2.4v5.5c1.82.9 4.23 1.91 8.7 1.91 6.32 0 8.83-2.85 8.83-7.1m0 0c0-4-2.1-5.88-8.01-7.17-3.27-.73-4.06-1.47-4.06-2.51 0-1.32 1.17-1.88 3.34-1.88 2.61 0 5.19.8 7.63 1.91V6.58A17.06 17.06 0 0 0 132.36 5c-5.84 0-8.87 2.58-8.87 6.79M204.75 5.36v22.88h4.82V10.79l2.03 4.63 6.8 12.82h6.05V5.36h-4.81v14.76l-1.82-4.28-5.47-10.48zM168.88 5.36h5.26v22.88h-5.26zM162.82 21.48c0-4-2.1-5.88-8.01-7.17-3.27-.73-4.06-1.47-4.06-2.51 0-1.32 1.17-1.88 3.33-1.88 2.62 0 5.2.8 7.64 1.91V6.58A17.06 17.06 0 0 0 154.26 5c-5.85 0-8.87 2.58-8.87 6.79 0 3.38 1.54 6.06 7.6 7.24 3.6.77 4.36 1.36 4.36 2.58 0 1.18-.76 1.95-3.3 1.95a18.44 18.44 0 0 1-8.77-2.4v5.5c1.82.9 4.23 1.91 8.7 1.91 6.33 0 8.84-2.85 8.84-7.1M82.63 5.36v22.88h10.81l1.7-4.95h-7.22V5.36zM61.27 5.36v4.94h5.85v17.94h5.29V10.3h6.26V5.36zM53.6 5.36h-6.94l-7.88 22.88h6.02l1.11-3.86c2.75.82 5.68.82 8.43 0l1.11 3.86h6.02L53.6 5.36zm-3.47 14.9c-.98 0-1.96-.14-2.9-.42l2.9-9.99 2.9 9.99c-.95.28-1.92.42-2.9.42zM112.08 5.36h-6.94l-7.87 22.88h6.01l1.12-3.86c2.75.82 5.67.82 8.42 0l1.12 3.86h6.01l-7.87-22.88zm-3.47 14.9c-.98 0-1.95-.14-2.9-.42l2.9-9.99 2.9 9.99c-.94.28-1.92.42-2.9.42zM193.1 5.36h-6.94l-7.88 22.88h6.02l1.12-3.86c2.75.82 5.67.82 8.42 0l1.12 3.86h6.01L193.1 5.36zm-3.47 14.9c-.98 0-1.96-.14-2.9-.42l2.9-9.99 2.9 9.99c-.95.28-1.92.42-2.9.42z"/>
		</g>
	</symbol>
	<symbol id="ansarada-centered" viewBox="0 0 225 29">
		<g fill="#FFF" fill-rule="nonzero" transform="translate(10)">
			<path d="M6.47 28.26a6.47 6.47 0 0 1-6.43-6.5c0-3.6 2.88-6.51 6.43-6.51h6.47v6.5c0 1.73-.69 3.39-1.9 4.61a6.41 6.41 0 0 1-4.57 1.9zM14.43 13.72V.94a12.2 12.2 0 0 1 9 3.66 12.5 12.5 0 0 1 3.56 9.12H14.43zM20.93 27.96a6.18 6.18 0 0 1-4.55-1.7 6.33 6.33 0 0 1-1.95-4.5v-6.5h12.56v12.71l-6.06-.01z"/>
			<ellipse cx="6.47" cy="7.2" rx="6.43" ry="6.5"/>
			<path d="M48.64 17.2v-.97c0-2.39-1.36-3.63-3.89-3.63a3.75 3.75 0 0 0-3.5 2.51h-4.71V8.67h4.7v1.96h.35a6.79 6.79 0 0 1 5.11-2.28c5.08 0 7.67 2.51 7.67 7.99v7.76h2.36v3.86h-7.9v-2.39h-.42a7.5 7.5 0 0 1-5.84 2.76c-4.27 0-6.98-2.55-6.98-6.14s2.72-6.14 7.36-6.14c1.83-.06 3.64.35 5.27 1.2l.42-.05zm-7.26 4.88c0 1.38 1.19 2.76 3.7 2.76 2.51 0 3.7-1.38 3.7-2.76s-1.19-2.76-3.7-2.76c-2.51 0-3.7 1.38-3.7 2.76zM72.1 8.35c3.86 0 6 2.76 6 6.6v9.15h2.4v3.86h-8.2V16.38c0-2.23-1.14-3.28-2.97-3.28a2.8 2.8 0 0 0-2.29.9 2.88 2.88 0 0 0-.72 2.38v7.73h3.12v3.86H58.26v-3.86h2.33v-11.6h-2.73V8.68h8.28v3.12h.38a6.25 6.25 0 0 1 5.58-3.44zm14.63 18.08v1.54h-4.7v-6.76h4.7a4.49 4.49 0 0 0 4.46 3.01c1.87 0 2.73-.77 2.73-1.63 0-.85-.43-1.38-2.17-1.65l-3.97-.78c-3.48-.66-5.39-2.5-5.39-5.6 0-3.55 2.55-6.21 6.82-6.21 1.87-.08 3.7.59 5.08 1.86h.38V8.67h4.69v6.44h-4.7c-.33-1.78-2.35-2.9-4.38-2.9-2.04 0-2.56.78-2.56 1.6 0 .8.47 1.2 1.76 1.45l4.74.93c3.82.73 5.22 2.76 5.22 5.8 0 3.82-3.16 6.29-7.45 6.29a6.2 6.2 0 0 1-4.88-1.85h-.38zm26.75-9.23v-.97c0-2.39-1.36-3.63-3.89-3.63a3.75 3.75 0 0 0-3.5 2.51h-4.7V8.67h4.7v1.96h.38a6.79 6.79 0 0 1 5.11-2.28c5.08 0 7.67 2.51 7.67 7.99v7.76h2.33v3.86h-7.9v-2.39h-.38a7.5 7.5 0 0 1-5.84 2.76c-4.27 0-6.98-2.55-6.98-6.14s2.73-6.14 7.37-6.14c1.82-.06 3.64.35 5.26 1.2l.37-.05zm-7.24 4.88c0 1.38 1.18 2.76 3.7 2.76 2.5 0 3.69-1.38 3.69-2.76s-1.19-2.76-3.7-2.76c-2.5 0-3.7 1.38-3.7 2.76zm16.88 2.04h2.34v-11.6h-2.73V8.65H131v3.14h.38a5.81 5.81 0 0 1 5.46-3.14h.68v6.45h-4.45c-1.25 0-1.87.58-1.87 2.12v6.9h3.14V28h-11.24l.01-3.87zm28.56-6.9v-.96c0-2.39-1.37-3.63-3.9-3.63a3.75 3.75 0 0 0-3.5 2.5h-4.69V8.66h4.7v1.98h.37a6.79 6.79 0 0 1 5.12-2.28c5.08 0 7.67 2.51 7.67 7.99v7.76h2.33v3.86h-7.9v-2.39h-.38a7.5 7.5 0 0 1-5.84 2.76c-4.27 0-6.98-2.55-6.98-6.14s2.72-6.14 7.36-6.14c1.83-.06 3.64.35 5.27 1.2l.37-.03zm-7.26 4.86c0 1.38 1.19 2.76 3.7 2.76 2.5 0 3.7-1.38 3.7-2.76s-1.2-2.76-3.7-2.76c-2.51 0-3.7 1.31-3.7 2.76zm29.7-11.2V5.38h-2.94V.94h8.7V23.6h2.34v4.36h-7.56v-2.62h-.38a7.45 7.45 0 0 1-5.73 2.94c-5.22 0-8.51-4.21-8.51-9.97 0-5.75 3.29-9.96 8.51-9.96 2 .08 3.88.99 5.2 2.51l.37.03zm.15 7.46c0-3.55-1.45-5.84-3.97-5.84-2.53 0-4.16 2.28-4.16 5.84s1.63 5.84 4.16 5.84c2.52 0 3.95-2.32 3.95-5.87l.02.03zm22.25-1.12v-.96c0-2.39-1.37-3.63-3.9-3.63a3.75 3.75 0 0 0-3.5 2.5h-4.7V8.66h4.69v1.98h.38a6.79 6.79 0 0 1 5.12-2.28c5.07 0 7.66 2.51 7.66 7.99v7.76h2.34v3.86h-7.9v-2.39h-.38a7.5 7.5 0 0 1-5.84 2.76c-4.3-.05-7.03-2.6-7.03-6.25 0-3.64 2.73-6.14 7.37-6.14 1.83-.06 3.64.35 5.26 1.2l.43.08zm-7.26 4.86c0 1.38 1.19 2.76 3.7 2.76 2.5 0 3.7-1.38 3.7-2.76s-1.2-2.76-3.7-2.76c-2.51 0-3.7 1.31-3.7 2.76z"/>
		</g>
	</symbol>
	<symbol id="lendi-centered" viewBox="0 0 225 38">
		<g fill="#FFF" fill-rule="evenodd">
			<path d="M168 11h2.57a2.47 2.47 0 0 1 2.43 2.47V15h-5v-4zM97 11h2.57c.64-.02 1.26.24 1.72.7.47.46.73 1.12.7 1.8V37H97V11z"/>
			<path fill-rule="nonzero" d="M118.02 31.4h3.68a8.32 8.32 0 0 1-3.07 4.84A9.12 9.12 0 0 1 112.9 38c-2.79 0-4.97-.94-6.54-2.81-1.57-1.82-2.35-4.42-2.35-7.8 0-3.23.76-5.76 2.28-7.58 1.57-1.87 3.75-2.81 6.54-2.81 2.94 0 5.22.9 6.82 2.73 1.57 1.87 2.36 4.47 2.36 7.8v.83c0 .18-.02.36-.07.53H109.2c.05 1.57.42 2.73 1.1 3.49.64.8 1.6 1.21 2.87 1.21a4.09 4.09 0 0 0 2.53-.8l.41-.41c.13-.25.32-.46.55-.6.4-.29.88-.42 1.36-.39zm-8.82-5.9h7.5a5.04 5.04 0 0 0-1.02-3.03 3.57 3.57 0 0 0-2.73-1.06 3.53 3.53 0 0 0-2.64 1.06c-.7.7-1.06 1.7-1.1 3.03z"/>
			<path d="M143 38h-2.72a2.52 2.52 0 0 1-2.63-2.63v-10.5c0-1.23-.38-2.13-1.13-2.7a4.09 4.09 0 0 0-5 0c-.71.57-1.07 1.47-1.07 2.7V38H125V25.95c0-3.5.92-5.84 2.75-7.02a12.05 12.05 0 0 1 6.09-1.93c2.22-.01 4.4.61 6.28 1.8 1.92 1.18 2.88 3.57 2.88 7.15V38z"/>
			<path fill-rule="nonzero" d="M158.83 11h2.59c.7 0 1.36.29 1.83.81.47.48.74 1.13.75 1.81v15.03c0 3.65-1.04 6.12-3.12 7.4a12.62 12.62 0 0 1-6.75 1.95 11.8 11.8 0 0 1-3.88-.66 6.35 6.35 0 0 1-3.05-2.12c-1.47-1.9-2.2-4.5-2.2-7.79 0-3.24.73-5.84 2.2-7.79a7.03 7.03 0 0 1 5.86-3 7 7 0 0 1 3.34.77c.99.6 1.82 1.41 2.43 2.4V11zm-8.66 16.2c0 2.06.38 3.63 1.14 4.7a3.76 3.76 0 0 0 3.27 1.63 3.69 3.69 0 0 0 3.2-1.62c.7-1.08 1.05-2.65 1.05-4.71 0-1.85-.38-3.31-1.14-4.4a3.95 3.95 0 0 0-3.27-1.54 3.61 3.61 0 0 0-3.11 1.62c-.76 1.03-1.14 2.47-1.14 4.32z"/>
			<path d="M168 17h2.57a2.51 2.51 0 0 1 2.43 2.56V37h-5V17z"/>
			<path fill-rule="nonzero" d="M90.5 11.12L74.64.56a3.38 3.38 0 0 0-3.7-.02l-16.4 10.55A3.33 3.33 0 0 0 53 13.9v20.78C53 36.5 54.5 38 56.36 38h32.28C90.5 38 92 36.5 92 34.67V13.89c0-1.11-.56-2.15-1.5-2.77zm-5.22 20.22h-9.42v-9.7h-6.7v9.7h-9.44V15.7l13-8.37 12.56 8.34v15.67z"/>
		</g>
	</symbol>
	<symbol id="pwc-centered" viewBox="0 0 225 63">
		<g fill="#FFF" fill-rule="nonzero">
			<path d="M154 27.02h-30.16V19.3H154z"/>
			<path d="M150.08 27.02h-26.24V7.71h26.24z"/>
			<path d="M139.24 27.02h-15.4V0h15.4z"/>
			<path d="M142.27 27.02h-18.43V3.01h18.43v24.01z"/>
			<path d="M123.84 3.02v23.99h15.4V3.02zM108.4 27.02h15.44v3.85H108.4z"/>
			<path d="M123.84 7.71v19.3h18.44V7.71z"/>
			<path d="M123.84 7.71v19.3h15.4V7.71z"/>
			<path d="M133.47 27.02h-9.63V15.43h9.63z"/>
			<path d="M123.84 19.3v7.71h26.25V19.3z"/>
			<path d="M123.84 19.3v7.71h18.44V19.3z"/>
			<path d="M123.84 19.3v7.71h15.4V19.3z"/>
			<path d="M123.84 19.3v7.71h9.64V19.3zM127.2 41.55c-2.63.47-4.03 2.45-4.03 5.9 0 3.5 1.87 5.83 4.61 5.83 1.34 0 2.51-.46 4.97-1.69v2.86c-2.98 1.4-4.73 1.75-7.07 1.75-2.63 0-4.5-.64-5.96-2.21a7.97 7.97 0 0 1-2.33-5.78c0-4.97 3.74-8.41 9.17-8.41 3.56 0 6.07 1.7 6.07 4.09 0 1.57-1.17 2.68-2.86 2.68-.88 0-1.58-.3-2.57-.82M114.06 48.2c2.4-2.97 3.27-4.2 3.27-5.66a2.75 2.75 0 0 0-2.8-2.74c-.94 0-1.81.52-2.22 1v6.12l-3.91 5.26V40.27h-3.74l-6.2 10.21V40.27h-2.1l-5.66 1.28v1.46l3.1.3v12.66h3.91l5.96-9.8v9.8h4.38M78.85 53.99h.87c3.16 0 4.91-1.93 4.91-5.78 0-3.21-1.4-4.97-4.03-4.97-.35 0-.88.06-1.75.24v10.5zm0 6.88l2.57.59v1.46h-10.1v-1.46l2.33-.59V43.24h-2.57v-1.46l6.13-1.86h1.64v2.1c2.86-1.75 3.85-2.05 5.37-2.05 3.39 0 5.96 3.16 5.96 7.54 0 5.02-3.45 8.46-8.7 8.46-.59 0-1.58-.06-2.63-.12v5.02z"/>
		</g>
	</symbol>
	<symbol id="atlassian" viewBox="0 0 225 63" preserveAspectRatio="xMidYMin">
		<g fill="#FFF" fill-rule="nonzero">
			<path d="M8.57 13.27a.78.78 0 0 0-1.33.15L.51 27.06a.82.82 0 0 0 .03.79c.15.24.4.39.69.39h9.37c.31 0 .6-.17.72-.45 2.03-4.24.8-10.68-2.75-14.52zM13.5.86a18.2 18.2 0 0 0-1.03 17.77L17 27.79a.8.8 0 0 0 .72.45h9.38a.8.8 0 0 0 .68-.4.82.82 0 0 0 .04-.78L14.88.86a.76.76 0 0 0-.69-.43c-.29 0-.55.17-.68.43zM123.5 11.8c0 3.38 1.54 6.06 7.59 7.24 3.6.77 4.36 1.36 4.36 2.58 0 1.18-.75 1.95-3.3 1.95a18.44 18.44 0 0 1-8.76-2.4v5.5c1.82.9 4.23 1.91 8.7 1.91 6.32 0 8.83-2.85 8.83-7.1m0 0c0-4-2.1-5.88-8.01-7.17-3.27-.73-4.06-1.47-4.06-2.51 0-1.32 1.17-1.88 3.34-1.88 2.61 0 5.19.8 7.63 1.91V6.58A17.06 17.06 0 0 0 132.36 5c-5.84 0-8.87 2.58-8.87 6.79M204.75 5.36v22.88h4.82V10.79l2.03 4.63 6.8 12.82h6.05V5.36h-4.81v14.76l-1.82-4.28-5.47-10.48zM168.88 5.36h5.26v22.88h-5.26zM162.82 21.48c0-4-2.1-5.88-8.01-7.17-3.27-.73-4.06-1.47-4.06-2.51 0-1.32 1.17-1.88 3.33-1.88 2.62 0 5.2.8 7.64 1.91V6.58A17.06 17.06 0 0 0 154.26 5c-5.85 0-8.87 2.58-8.87 6.79 0 3.38 1.54 6.06 7.6 7.24 3.6.77 4.36 1.36 4.36 2.58 0 1.18-.76 1.95-3.3 1.95a18.44 18.44 0 0 1-8.77-2.4v5.5c1.82.9 4.23 1.91 8.7 1.91 6.33 0 8.84-2.85 8.84-7.1M82.63 5.36v22.88h10.81l1.7-4.95h-7.22V5.36zM61.27 5.36v4.94h5.85v17.94h5.29V10.3h6.26V5.36zM53.6 5.36h-6.94l-7.88 22.88h6.02l1.11-3.86c2.75.82 5.68.82 8.43 0l1.11 3.86h6.02L53.6 5.36zm-3.47 14.9c-.98 0-1.96-.14-2.9-.42l2.9-9.99 2.9 9.99c-.95.28-1.92.42-2.9.42zM112.08 5.36h-6.94l-7.87 22.88h6.01l1.12-3.86c2.75.82 5.67.82 8.42 0l1.12 3.86h6.01l-7.87-22.88zm-3.47 14.9c-.98 0-1.95-.14-2.9-.42l2.9-9.99 2.9 9.99c-.94.28-1.92.42-2.9.42zM193.1 5.36h-6.94l-7.88 22.88h6.02l1.12-3.86c2.75.82 5.67.82 8.42 0l1.12 3.86h6.01L193.1 5.36zm-3.47 14.9c-.98 0-1.96-.14-2.9-.42l2.9-9.99 2.9 9.99c-.95.28-1.92.42-2.9.42z"/>
		</g>
	</symbol>
	<symbol id="ansarada" viewBox="0 0 225 63" preserveAspectRatio="xMidYMin">
		<g fill="#FFF" fill-rule="nonzero">
			<path d="M6.47 28.26a6.47 6.47 0 0 1-6.43-6.5c0-3.6 2.88-6.51 6.43-6.51h6.47v6.5c0 1.73-.69 3.39-1.9 4.61a6.41 6.41 0 0 1-4.57 1.9zM14.43 13.72V.94a12.2 12.2 0 0 1 9 3.66 12.5 12.5 0 0 1 3.56 9.12H14.43zM20.93 27.96a6.18 6.18 0 0 1-4.55-1.7 6.33 6.33 0 0 1-1.95-4.5v-6.5h12.56v12.71l-6.06-.01z"/>
			<ellipse cx="6.47" cy="7.2" rx="6.43" ry="6.5"/>
			<path d="M48.64 17.2v-.97c0-2.39-1.36-3.63-3.89-3.63a3.75 3.75 0 0 0-3.5 2.51h-4.71V8.67h4.7v1.96h.35a6.79 6.79 0 0 1 5.11-2.28c5.08 0 7.67 2.51 7.67 7.99v7.76h2.36v3.86h-7.9v-2.39h-.42a7.5 7.5 0 0 1-5.84 2.76c-4.27 0-6.98-2.55-6.98-6.14s2.72-6.14 7.36-6.14c1.83-.06 3.64.35 5.27 1.2l.42-.05zm-7.26 4.88c0 1.38 1.19 2.76 3.7 2.76 2.51 0 3.7-1.38 3.7-2.76s-1.19-2.76-3.7-2.76c-2.51 0-3.7 1.38-3.7 2.76zM72.1 8.35c3.86 0 6 2.76 6 6.6v9.15h2.4v3.86h-8.2V16.38c0-2.23-1.14-3.28-2.97-3.28a2.8 2.8 0 0 0-2.29.9 2.88 2.88 0 0 0-.72 2.38v7.73h3.12v3.86H58.26v-3.86h2.33v-11.6h-2.73V8.68h8.28v3.12h.38a6.25 6.25 0 0 1 5.58-3.44zm14.63 18.08v1.54h-4.7v-6.76h4.7a4.49 4.49 0 0 0 4.46 3.01c1.87 0 2.73-.77 2.73-1.63 0-.85-.43-1.38-2.17-1.65l-3.97-.78c-3.48-.66-5.39-2.5-5.39-5.6 0-3.55 2.55-6.21 6.82-6.21 1.87-.08 3.7.59 5.08 1.86h.38V8.67h4.69v6.44h-4.7c-.33-1.78-2.35-2.9-4.38-2.9-2.04 0-2.56.78-2.56 1.6 0 .8.47 1.2 1.76 1.45l4.74.93c3.82.73 5.22 2.76 5.22 5.8 0 3.82-3.16 6.29-7.45 6.29a6.2 6.2 0 0 1-4.88-1.85h-.38zm26.75-9.23v-.97c0-2.39-1.36-3.63-3.89-3.63a3.75 3.75 0 0 0-3.5 2.51h-4.7V8.67h4.7v1.96h.38a6.79 6.79 0 0 1 5.11-2.28c5.08 0 7.67 2.51 7.67 7.99v7.76h2.33v3.86h-7.9v-2.39h-.38a7.5 7.5 0 0 1-5.84 2.76c-4.27 0-6.98-2.55-6.98-6.14s2.73-6.14 7.37-6.14c1.82-.06 3.64.35 5.26 1.2l.37-.05zm-7.24 4.88c0 1.38 1.18 2.76 3.7 2.76 2.5 0 3.69-1.38 3.69-2.76s-1.19-2.76-3.7-2.76c-2.5 0-3.7 1.38-3.7 2.76zm16.88 2.04h2.34v-11.6h-2.73V8.65H131v3.14h.38a5.81 5.81 0 0 1 5.46-3.14h.68v6.45h-4.45c-1.25 0-1.87.58-1.87 2.12v6.9h3.14V28h-11.24l.01-3.87zm28.56-6.9v-.96c0-2.39-1.37-3.63-3.9-3.63a3.75 3.75 0 0 0-3.5 2.5h-4.69V8.66h4.7v1.98h.37a6.79 6.79 0 0 1 5.12-2.28c5.08 0 7.67 2.51 7.67 7.99v7.76h2.33v3.86h-7.9v-2.39h-.38a7.5 7.5 0 0 1-5.84 2.76c-4.27 0-6.98-2.55-6.98-6.14s2.72-6.14 7.36-6.14c1.83-.06 3.64.35 5.27 1.2l.37-.03zm-7.26 4.86c0 1.38 1.19 2.76 3.7 2.76 2.5 0 3.7-1.38 3.7-2.76s-1.2-2.76-3.7-2.76c-2.51 0-3.7 1.31-3.7 2.76zm29.7-11.2V5.38h-2.94V.94h8.7V23.6h2.34v4.36h-7.56v-2.62h-.38a7.45 7.45 0 0 1-5.73 2.94c-5.22 0-8.51-4.21-8.51-9.97 0-5.75 3.29-9.96 8.51-9.96 2 .08 3.88.99 5.2 2.51l.37.03zm.15 7.46c0-3.55-1.45-5.84-3.97-5.84-2.53 0-4.16 2.28-4.16 5.84s1.63 5.84 4.16 5.84c2.52 0 3.95-2.32 3.95-5.87l.02.03zm22.25-1.12v-.96c0-2.39-1.37-3.63-3.9-3.63a3.75 3.75 0 0 0-3.5 2.5h-4.7V8.66h4.69v1.98h.38a6.79 6.79 0 0 1 5.12-2.28c5.07 0 7.66 2.51 7.66 7.99v7.76h2.34v3.86h-7.9v-2.39h-.38a7.5 7.5 0 0 1-5.84 2.76c-4.3-.05-7.03-2.6-7.03-6.25 0-3.64 2.73-6.14 7.37-6.14 1.83-.06 3.64.35 5.26 1.2l.43.08zm-7.26 4.86c0 1.38 1.19 2.76 3.7 2.76 2.5 0 3.7-1.38 3.7-2.76s-1.2-2.76-3.7-2.76c-2.51 0-3.7 1.31-3.7 2.76z"/>
		</g>
	</symbol>
	<symbol id="lendi" viewBox="0 0 225 63" preserveAspectRatio="xMidYMin">
		<g fill="#FFF" fill-rule="evenodd">
			<path d="M115 11h2.57a2.47 2.47 0 0 1 2.43 2.47V15h-5v-4zM44 11h2.57c.64-.02 1.26.24 1.72.7.47.46.73 1.12.7 1.8V37H44V11z"/>
			<path fill-rule="nonzero" d="M65.02 31.4h3.68a8.32 8.32 0 0 1-3.07 4.84A9.12 9.12 0 0 1 59.9 38c-2.79 0-4.97-.94-6.54-2.81-1.57-1.82-2.35-4.42-2.35-7.8 0-3.23.76-5.76 2.28-7.58 1.57-1.87 3.75-2.81 6.54-2.81 2.94 0 5.22.9 6.82 2.73C68.21 21.6 69 24.2 69 27.53v.83c0 .18-.02.36-.07.53H56.2c.05 1.57.42 2.73 1.1 3.49.64.8 1.6 1.21 2.87 1.21a4.09 4.09 0 0 0 2.53-.8l.41-.41c.13-.25.32-.46.55-.6.4-.29.88-.42 1.36-.39zm-8.82-5.9h7.5a5.04 5.04 0 0 0-1.02-3.03 3.57 3.57 0 0 0-2.73-1.06 3.53 3.53 0 0 0-2.64 1.06c-.7.7-1.06 1.7-1.1 3.03z"/>
			<path d="M90 38h-2.72a2.52 2.52 0 0 1-2.63-2.63v-10.5c0-1.23-.38-2.13-1.13-2.7a4.09 4.09 0 0 0-5 0c-.71.57-1.07 1.47-1.07 2.7V38H72V25.95c0-3.5.92-5.84 2.75-7.02A12.05 12.05 0 0 1 80.84 17c2.22-.01 4.4.61 6.28 1.8 1.92 1.18 2.88 3.57 2.88 7.15V38z"/>
			<path fill-rule="nonzero" d="M105.83 11h2.59c.7 0 1.36.29 1.83.81.47.48.74 1.13.75 1.81v15.03c0 3.65-1.04 6.12-3.12 7.4a12.62 12.62 0 0 1-6.75 1.95 11.8 11.8 0 0 1-3.88-.66 6.35 6.35 0 0 1-3.05-2.12c-1.47-1.9-2.2-4.5-2.2-7.79 0-3.24.73-5.84 2.2-7.79a7.03 7.03 0 0 1 5.86-3 7 7 0 0 1 3.34.77c.99.6 1.82 1.41 2.43 2.4V11zm-8.66 16.2c0 2.06.38 3.63 1.14 4.7a3.76 3.76 0 0 0 3.27 1.63 3.69 3.69 0 0 0 3.2-1.62c.7-1.08 1.05-2.65 1.05-4.71 0-1.85-.38-3.31-1.14-4.4a3.95 3.95 0 0 0-3.27-1.54 3.61 3.61 0 0 0-3.11 1.62c-.76 1.03-1.14 2.47-1.14 4.32z"/>
			<path d="M115 17h2.57a2.51 2.51 0 0 1 2.43 2.56V37h-5V17z"/>
			<path fill-rule="nonzero" d="M37.5 11.12L21.64.56a3.38 3.38 0 0 0-3.7-.02L1.53 11.09A3.33 3.33 0 0 0 0 13.9v20.78C0 36.5 1.5 38 3.36 38h32.28C37.5 38 39 36.5 39 34.67V13.89c0-1.11-.56-2.15-1.5-2.77zm-5.22 20.22h-9.42v-9.7h-6.7v9.7H6.71V15.7l13-8.37 12.56 8.34v15.67z"/>
		</g>
	</symbol>
	<symbol id="pwc" viewBox="0 0 225 63" preserveAspectRatio="xMidYMin">
		<g fill="#FFF" fill-rule="nonzero">
			<path d="M83 27.02H52.84V19.3H83z"/>
			<path d="M79.08 27.02H52.84V7.71h26.24z"/>
			<path d="M68.24 27.02h-15.4V0h15.4z"/>
			<path d="M71.27 27.02H52.84V3.01h18.43v24.01z"/>
			<path d="M52.84 3.02v23.99h15.4V3.02zM37.4 27.02h15.44v3.85H37.4z"/>
			<path d="M52.84 7.71v19.3h18.44V7.71z"/>
			<path d="M52.84 7.71v19.3h15.4V7.71z"/>
			<path d="M62.47 27.02h-9.63V15.43h9.63z"/>
			<path d="M52.84 19.3v7.71h26.25V19.3z"/>
			<path d="M52.84 19.3v7.71h18.44V19.3z"/>
			<path d="M52.84 19.3v7.71h15.4V19.3z"/>
			<path d="M52.84 19.3v7.71h9.64V19.3zM56.2 41.55c-2.63.47-4.03 2.45-4.03 5.9 0 3.5 1.87 5.83 4.61 5.83 1.34 0 2.51-.46 4.97-1.69v2.86c-2.98 1.4-4.73 1.75-7.07 1.75-2.63 0-4.5-.64-5.96-2.21a7.97 7.97 0 0 1-2.33-5.78c0-4.97 3.74-8.41 9.17-8.41 3.56 0 6.07 1.7 6.07 4.09 0 1.57-1.17 2.68-2.86 2.68-.88 0-1.58-.3-2.57-.82M43.06 48.2c2.4-2.97 3.27-4.2 3.27-5.66a2.75 2.75 0 0 0-2.8-2.74c-.94 0-1.81.52-2.22 1v6.12l-3.91 5.26V40.27h-3.74l-6.2 10.21V40.27h-2.1l-5.66 1.28v1.46l3.1.3v12.66h3.91l5.96-9.8v9.8h4.38M7.85 53.99h.87c3.16 0 4.91-1.93 4.91-5.78 0-3.21-1.4-4.97-4.03-4.97-.35 0-.88.06-1.75.24v10.5zm0 6.88l2.57.59v1.46H.32v-1.46l2.33-.59V43.24H.08v-1.46l6.13-1.86h1.64v2.1c2.86-1.75 3.85-2.05 5.37-2.05 3.39 0 5.96 3.16 5.96 7.54 0 5.02-3.45 8.46-8.7 8.46-.59 0-1.58-.06-2.63-.12v5.02z"/>
		</g>
	</symbol>
	<symbol id="interplay" viewBox="0 0 225 63" preserveAspectRatio="xMidYMin">
		<g fill="#FFF" fill-rule="evenodd">
			<path d="M0 27.68h6.29V.54H0zM28.93 15.77v11.9H22.9v-10.9c0-1.7-1.24-2.97-3-2.97-1.77 0-3.2 1.27-3.2 2.96v10.92H10.6V8.86h6.1v2.3a6.93 6.93 0 0 1 5.42-2.68c3.77 0 6.81 3.15 6.81 7.3zM40.17 13.52v6.72c0 1.56.9 2.55 2.2 2.55h2.28v4.65c-.48.33-1.76.62-3.05.62-4.04 0-7.47-3.11-7.47-7.1v-7.44h-3.2V8.86h3.2V1.54h6.04v7.32h4.53v4.66h-4.53zM53.46 15.63h7.9c-.61-1.64-1.8-2.58-3.85-2.58-2.14 0-3.43.98-4.05 2.58zm14.2 3.63H53.07c.24 2.68 1.67 4.33 4.43 4.33 2.1 0 3.48-.9 4-2.4h5.86c-.96 4.09-4.48 6.87-9.77 6.87-6.38 0-10.66-3.91-10.66-9.8 0-5.87 4.33-9.83 10.47-9.83 6.15 0 10.24 3.91 10.24 9.8v1.03zM83.94 8.67v5.32a8.32 8.32 0 0 0-1.76-.2c-3 0-5.14 1.8-5.14 4.9v8.99h-6.1V8.86h6.1v2.59a6.33 6.33 0 0 1 6.9-2.78zM101.32 18.27c0-2.5-2-4.47-4.52-4.47a4.47 4.47 0 1 0 0 8.94 4.47 4.47 0 0 0 4.52-4.47zm6.05 0c0 5.46-4.14 9.79-9.38 9.79-2.2 0-4-.76-5.43-2.03v9.76l-6.1-.04V8.85l6.1.06v1.6a7.95 7.95 0 0 1 5.43-2.03c5.24 0 9.38 4.33 9.38 9.79zM110.7 27.68h6.1V.54h-6.1zM135.28 18.27a4.5 4.5 0 0 0-4.53-4.47 4.47 4.47 0 1 0 0 8.94 4.5 4.5 0 0 0 4.53-4.47zm8.28 4.52v4.89c-.43.19-1 .38-1.62.38a6.74 6.74 0 0 1-5.85-3.2 8.02 8.02 0 0 1-6.53 3.2c-5.28 0-9.43-4.33-9.43-9.8 0-5.45 4.15-9.78 9.43-9.78 2.2 0 4 .75 5.43 2.02V8.86h6.05v12.1c0 1.54.86 1.83 1.67 1.83h.85zM166.09 8.86l-11.02 26.93h-6.39l3.31-7.69-7.95-19.24h6.34l4.76 12.47 4.66-12.47zM179.48 22.2a5.51 5.51 0 0 1-5.55 5.48 5.51 5.51 0 0 1-5.55-5.48 5.51 5.51 0 0 1 5.55-5.48 5.51 5.51 0 0 1 5.55 5.48z"/>
		</g>
	</symbol>
	<symbol id="invision" viewBox="0 0 225 63" preserveAspectRatio="xMidYMin">
		<g fill="none" fill-rule="nonzero">
			<use fill="#E5E5E5" xlink:href="#invision-a"/>
			<use fill="#FFF" xlink:href="#invision-a"/>
		</g>
	</symbol>
	<symbol id="expert360" viewBox="0 0 225 63" preserveAspectRatio="xMidYMin">
		<g fill="none" fill-rule="nonzero">
			<use fill="#E5E5E5" xlink:href="#expert360-a"/>
			<use fill="#FFF" xlink:href="#expert360-a"/>
			<use fill="#E5E5E5" xlink:href="#expert360-b"/>
			<use fill="#FFF" xlink:href="#expert360-b"/>
			<use fill="#E5E5E5" xlink:href="#expert360-c"/>
			<use fill="#FFF" xlink:href="#expert360-c"/>
		</g>
	</symbol>
	<symbol id="lookahead" viewBox="0 0 225 63" preserveAspectRatio="xMidYMin">
		<g fill="#FFF" fill-rule="evenodd">
			<path d="M0 42.95h225V0H0v42.95zm1.94-1.91h221.12V1.91H1.94v39.13z"/>
			<path d="M15.7 29.14v-1.07l2.23-.13V13.51c0-.4-.08-.86-.66-.88l-2.3-.1v-1.08h7.75v1.08l-2.37.12v14.56c0 .64.32.8.85.86.74.07 1.3.1 1.84.1 3.64 0 4.74-1.45 5.65-5.74l.8.07-.24 6.25c0 .25-.2.4-.41.4H15.7zM48.08 20.45c0-4.9-1.42-8.19-4.89-8.19-3.47 0-4.84 3.28-4.84 8.19 0 4.9 1.37 8.15 4.84 8.15 3.47 0 4.9-3.25 4.9-8.15m-12.6 0c0-5.05 3.47-9.17 7.72-9.17 4.24 0 7.73 4.14 7.73 9.17 0 5.04-3.47 9.13-7.73 9.13-4.25 0-7.73-4.09-7.73-9.13M69.41 20.45c0-4.9-1.42-8.19-4.9-8.19-3.46 0-4.84 3.28-4.84 8.19 0 4.9 1.38 8.15 4.85 8.15 3.47 0 4.89-3.25 4.89-8.15m-12.6 0c0-5.05 3.47-9.17 7.73-9.17 4.23 0 7.73 4.14 7.73 9.17 0 5.04-3.47 9.13-7.73 9.13s-7.73-4.09-7.73-9.13M88.6 29.14v-1.07c1.65-.03 2.28-.08 2.28-.5 0-.16-.1-.36-.27-.63l-4.3-6.81c-1.15 1.32-2.18 2.47-2.57 2.94v4.06c0 .64.32.81.86.84l2.07.1v1.07H79.1v-1.07l2.23-.13V13.51c0-.4-.07-.86-.66-.88l-2.33-.1v-1.08h7.61v1.08l-2.2.12v8.8l6.39-7.33.02-.02c.1-.12.34-.44.34-.79 0-.66-1.64-.78-2.67-.78v-1.08h7.4v1.08c-1.52 0-2.3.27-4.31 2.43-.56.58-1.71 1.88-2.94 3.28.57.93 5.3 8.33 5.73 8.92.44.64 1.1.83 3 .9v1.08h-8.1zM108.88 15.89l-2.62 6.74h5.29l-2.67-6.74zm2.81 13.25V28l.93-.05c.3-.02.64-.17.64-.56 0-.12-.03-.3-.1-.49l-1.1-3.06h-6.16l-.66 1.64c-.13.32-.2.63-.2.98 0 .86 1.15 1.54 3.03 1.54v1.15h-6.45V28c1.2-.02 1.66-1.05 2.12-2.28l5.63-14.53h1.61l6.24 15.88c.25.64.83.93 2.35.93v1.15h-7.88zM134.78 29.14V28l2.03-.1v-7.22h-6.5v6.39c0 .64.31.83.85.86l1.86.07v1.15h-8.3V28l2.01-.1V13.51c0-.54-.3-.8-.76-.83l-1.9-.07v-1.16h8.24v1.16l-2 .1v6.6h6.5v-5.8c0-.4-.15-.8-.73-.83l-1.96-.07v-1.16h8.24v1.16l-1.98.1v14.35c0 .64.32.83.86.86l1.83.07v1.15h-8.29zM149.04 29.14V28l2.2-.1V13.51c0-.4-.12-.8-.71-.83l-2.23-.07v-1.16h14.97l.9 6.08-1 .12c-1.2-4.16-3.32-5.24-6.13-5.24-.64 0-1.4.05-2.18.07v6.96h.17c2.64 0 3.23-1.5 3.62-3.6h.98v8.62h-.98c-.2-2.42-1.34-3.9-3.45-3.92h-.34v6.67c0 .64.32.8.86.86.73.07 1.12.07 1.66.07 3.08 0 4.55-1.35 5.9-5.64l.9.08-.25 6.17c0 .25-.2.4-.41.4h-14.48zM176.87 15.89l-2.61 6.74h5.28l-2.67-6.74zm2.81 13.25V28l.93-.05c.3-.02.64-.17.64-.56 0-.12-.02-.3-.1-.49l-1.1-3.06h-6.16l-.66 1.64c-.12.32-.2.63-.2.98 0 .86 1.15 1.54 3.03 1.54v1.15h-6.45V28c1.2-.02 1.66-1.05 2.12-2.28l5.63-14.53h1.61l6.24 15.88c.25.64.83.93 2.35.93v1.15h-7.88zM205.56 20.05c0-4.55-1.4-7.52-5.04-7.52-.66 0-2.15.05-2.15.05v14.6c0 .64.32.81.85.86.44.05.69.05 1.13.05 3.77 0 5.2-2.65 5.2-8.04zm-13.06 9.1v-1.16l2.22-.1V13.51c0-.4-.12-.8-.7-.83l-2.18-.08v-1.15h9.05c5.35 0 8.6 3.26 8.6 8.65 0 6.5-3.69 9.04-8.14 9.04h-8.85z"/>
		</g>
	</symbol>
	<symbol id="thinkmill" viewBox="0 0 225 63" preserveAspectRatio="xMidYMin">
		<g fill="none" fill-rule="nonzero">
			<use fill="#E5E5E5" xlink:href="#thinkmill-a"/>
			<use fill="#FFF" xlink:href="#thinkmill-a"/>
			<use fill="#E5E5E5" xlink:href="#thinkmill-b"/>
			<use fill="#FFF" xlink:href="#thinkmill-b"/>
		</g>
	</symbol>
</svg>
