<svg height="298pt" preserveAspectRatio="xMidYMid meet" viewBox="0 0 298 298" width="298pt" xmlns="http://www.w3.org/2000/svg"><g transform="matrix(.1 0 0 -.1 0 298)"><path d="m0 1490v-1490h1490 1490v1490 1490h-1490-1490zm1131 780c89-17 189-73 277-155l79-74 64 65c121 123 226 169 384 168 113-1 181-21 273-81 216-143 281-447 141-665-17-26-213-228-436-448-315-311-410-400-430-400-19 0-113 87-421 391-218 215-414 415-434 445-103 152-115 328-32 493 97 195 317 302 535 261z"/><path d="m940 2144c-110-30-211-119-251-223-16-40-23-79-23-136-1-71 3-88 31-146 29-59 75-107 409-438l375-372 375 367c334 328 378 374 407 433 29 60 32 74 32 161 0 84-3 102-28 152-73 148-241 237-393 209-99-19-156-53-264-157-72-70-106-96-125-96-18 0-53 25-120 88-117 109-162 139-240 159-72 18-113 18-185-1z"/></g></svg>