<svg xmlns="http://www.w3.org/2000/svg">
	<symbol id="atlassian" viewBox="0 0 225 29">
		<g fill="#FFF" fill-rule="nonzero">
			<path d="M8.57 13.27a.78.78 0 0 0-1.33.15L.51 27.06a.82.82 0 0 0 .03.79c.15.24.4.39.69.39h9.37c.31 0 .6-.17.72-.45 2.03-4.24.8-10.68-2.75-14.52zM13.5.86a18.2 18.2 0 0 0-1.03 17.77L17 27.79a.8.8 0 0 0 .72.45h9.38a.8.8 0 0 0 .68-.4.82.82 0 0 0 .04-.78L14.88.86a.76.76 0 0 0-.69-.43c-.29 0-.55.17-.68.43zM123.5 11.8c0 3.38 1.54 6.06 7.59 7.24 3.6.77 4.36 1.36 4.36 2.58 0 1.18-.75 1.95-3.3 1.95a18.44 18.44 0 0 1-8.76-2.4v5.5c1.82.9 4.23 1.91 8.7 1.91 6.32 0 8.83-2.85 8.83-7.1m0 0c0-4-2.1-5.88-8.01-7.17-3.27-.73-4.06-1.47-4.06-2.51 0-1.32 1.17-1.88 3.34-1.88 2.61 0 5.19.8 7.63 1.91V6.58A17.06 17.06 0 0 0 132.36 5c-5.84 0-8.87 2.58-8.87 6.79M204.75 5.36v22.88h4.82V10.79l2.03 4.63 6.8 12.82h6.05V5.36h-4.81v14.76l-1.82-4.28-5.47-10.48zM168.88 5.36h5.26v22.88h-5.26zM162.82 21.48c0-4-2.1-5.88-8.01-7.17-3.27-.73-4.06-1.47-4.06-2.51 0-1.32 1.17-1.88 3.33-1.88 2.62 0 5.2.8 7.64 1.91V6.58A17.06 17.06 0 0 0 154.26 5c-5.85 0-8.87 2.58-8.87 6.79 0 3.38 1.54 6.06 7.6 7.24 3.6.77 4.36 1.36 4.36 2.58 0 1.18-.76 1.95-3.3 1.95a18.44 18.44 0 0 1-8.77-2.4v5.5c1.82.9 4.23 1.91 8.7 1.91 6.33 0 8.84-2.85 8.84-7.1M82.63 5.36v22.88h10.81l1.7-4.95h-7.22V5.36zM61.27 5.36v4.94h5.85v17.94h5.29V10.3h6.26V5.36zM53.6 5.36h-6.94l-7.88 22.88h6.02l1.11-3.86c2.75.82 5.68.82 8.43 0l1.11 3.86h6.02L53.6 5.36zm-3.47 14.9c-.98 0-1.96-.14-2.9-.42l2.9-9.99 2.9 9.99c-.95.28-1.92.42-2.9.42zM112.08 5.36h-6.94l-7.87 22.88h6.01l1.12-3.86c2.75.82 5.67.82 8.42 0l1.12 3.86h6.01l-7.87-22.88zm-3.47 14.9c-.98 0-1.95-.14-2.9-.42l2.9-9.99 2.9 9.99c-.94.28-1.92.42-2.9.42zM193.1 5.36h-6.94l-7.88 22.88h6.02l1.12-3.86c2.75.82 5.67.82 8.42 0l1.12 3.86h6.01L193.1 5.36zm-3.47 14.9c-.98 0-1.96-.14-2.9-.42l2.9-9.99 2.9 9.99c-.95.28-1.92.42-2.9.42z"/>
		</g>
	</symbol>
	<symbol id="ansarada" viewBox="0 0 205 29">
		<g fill="#FFF" fill-rule="nonzero">
			<path d="M6.47 28.26a6.47 6.47 0 0 1-6.43-6.5c0-3.6 2.88-6.51 6.43-6.51h6.47v6.5c0 1.73-.69 3.39-1.9 4.61a6.41 6.41 0 0 1-4.57 1.9zM14.43 13.72V.94a12.2 12.2 0 0 1 9 3.66 12.5 12.5 0 0 1 3.56 9.12H14.43zM20.93 27.96a6.18 6.18 0 0 1-4.55-1.7 6.33 6.33 0 0 1-1.95-4.5v-6.5h12.56v12.71l-6.06-.01z"/>
			<ellipse cx="6.47" cy="7.2" rx="6.43" ry="6.5"/>
			<path d="M48.64 17.2v-.97c0-2.39-1.36-3.63-3.89-3.63a3.75 3.75 0 0 0-3.5 2.51h-4.71V8.67h4.7v1.96h.35a6.79 6.79 0 0 1 5.11-2.28c5.08 0 7.67 2.51 7.67 7.99v7.76h2.36v3.86h-7.9v-2.39h-.42a7.5 7.5 0 0 1-5.84 2.76c-4.27 0-6.98-2.55-6.98-6.14s2.72-6.14 7.36-6.14c1.83-.06 3.64.35 5.27 1.2l.42-.05zm-7.26 4.88c0 1.38 1.19 2.76 3.7 2.76 2.51 0 3.7-1.38 3.7-2.76s-1.19-2.76-3.7-2.76c-2.51 0-3.7 1.38-3.7 2.76zM72.1 8.35c3.86 0 6 2.76 6 6.6v9.15h2.4v3.86h-8.2V16.38c0-2.23-1.14-3.28-2.97-3.28a2.8 2.8 0 0 0-2.29.9 2.88 2.88 0 0 0-.72 2.38v7.73h3.12v3.86H58.26v-3.86h2.33v-11.6h-2.73V8.68h8.28v3.12h.38a6.25 6.25 0 0 1 5.58-3.44zm14.63 18.08v1.54h-4.7v-6.76h4.7a4.49 4.49 0 0 0 4.46 3.01c1.87 0 2.73-.77 2.73-1.63 0-.85-.43-1.38-2.17-1.65l-3.97-.78c-3.48-.66-5.39-2.5-5.39-5.6 0-3.55 2.55-6.21 6.82-6.21 1.87-.08 3.7.59 5.08 1.86h.38V8.67h4.69v6.44h-4.7c-.33-1.78-2.35-2.9-4.38-2.9-2.04 0-2.56.78-2.56 1.6 0 .8.47 1.2 1.76 1.45l4.74.93c3.82.73 5.22 2.76 5.22 5.8 0 3.82-3.16 6.29-7.45 6.29a6.2 6.2 0 0 1-4.88-1.85h-.38zm26.75-9.23v-.97c0-2.39-1.36-3.63-3.89-3.63a3.75 3.75 0 0 0-3.5 2.51h-4.7V8.67h4.7v1.96h.38a6.79 6.79 0 0 1 5.11-2.28c5.08 0 7.67 2.51 7.67 7.99v7.76h2.33v3.86h-7.9v-2.39h-.38a7.5 7.5 0 0 1-5.84 2.76c-4.27 0-6.98-2.55-6.98-6.14s2.73-6.14 7.37-6.14c1.82-.06 3.64.35 5.26 1.2l.37-.05zm-7.24 4.88c0 1.38 1.18 2.76 3.7 2.76 2.5 0 3.69-1.38 3.69-2.76s-1.19-2.76-3.7-2.76c-2.5 0-3.7 1.38-3.7 2.76zm16.88 2.04h2.34v-11.6h-2.73V8.65H131v3.14h.38a5.81 5.81 0 0 1 5.46-3.14h.68v6.45h-4.45c-1.25 0-1.87.58-1.87 2.12v6.9h3.14V28h-11.24l.01-3.87zm28.56-6.9v-.96c0-2.39-1.37-3.63-3.9-3.63a3.75 3.75 0 0 0-3.5 2.5h-4.69V8.66h4.7v1.98h.37a6.79 6.79 0 0 1 5.12-2.28c5.08 0 7.67 2.51 7.67 7.99v7.76h2.33v3.86h-7.9v-2.39h-.38a7.5 7.5 0 0 1-5.84 2.76c-4.27 0-6.98-2.55-6.98-6.14s2.72-6.14 7.36-6.14c1.83-.06 3.64.35 5.27 1.2l.37-.03zm-7.26 4.86c0 1.38 1.19 2.76 3.7 2.76 2.5 0 3.7-1.38 3.7-2.76s-1.2-2.76-3.7-2.76c-2.51 0-3.7 1.31-3.7 2.76zm29.7-11.2V5.38h-2.94V.94h8.7V23.6h2.34v4.36h-7.56v-2.62h-.38a7.45 7.45 0 0 1-5.73 2.94c-5.22 0-8.51-4.21-8.51-9.97 0-5.75 3.29-9.96 8.51-9.96 2 .08 3.88.99 5.2 2.51l.37.03zm.15 7.46c0-3.55-1.45-5.84-3.97-5.84-2.53 0-4.16 2.28-4.16 5.84s1.63 5.84 4.16 5.84c2.52 0 3.95-2.32 3.95-5.87l.02.03zm22.25-1.12v-.96c0-2.39-1.37-3.63-3.9-3.63a3.75 3.75 0 0 0-3.5 2.5h-4.7V8.66h4.69v1.98h.38a6.79 6.79 0 0 1 5.12-2.28c5.07 0 7.66 2.51 7.66 7.99v7.76h2.34v3.86h-7.9v-2.39h-.38a7.5 7.5 0 0 1-5.84 2.76c-4.3-.05-7.03-2.6-7.03-6.25 0-3.64 2.73-6.14 7.37-6.14 1.83-.06 3.64.35 5.26 1.2l.43.08zm-7.26 4.86c0 1.38 1.19 2.76 3.7 2.76 2.5 0 3.7-1.38 3.7-2.76s-1.2-2.76-3.7-2.76c-2.51 0-3.7 1.31-3.7 2.76z"/>
		</g>
	</symbol>
	<symbol id="lendi" viewBox="0 0 83 63">
		<g fill="#FFF" fill-rule="nonzero">
			<path d="M83 27.02H52.84V19.3H83z"/>
			<path d="M79.08 27.02H52.84V7.71h26.24z"/>
			<path d="M68.24 27.02h-15.4V0h15.4z"/>
			<path d="M71.27 27.02H52.84V3.01h18.43v24.01z"/>
			<path d="M52.84 3.02v23.99h15.4V3.02zM37.4 27.02h15.44v3.85H37.4z"/>
			<path d="M52.84 7.71v19.3h18.44V7.71z"/>
			<path d="M52.84 7.71v19.3h15.4V7.71z"/>
			<path d="M62.47 27.02h-9.63V15.43h9.63z"/>
			<path d="M52.84 19.3v7.71h26.25V19.3z"/>
			<path d="M52.84 19.3v7.71h18.44V19.3z"/>
			<path d="M52.84 19.3v7.71h15.4V19.3z"/>
			<path d="M52.84 19.3v7.71h9.64V19.3zM56.2 41.55c-2.63.47-4.03 2.45-4.03 5.9 0 3.5 1.87 5.83 4.61 5.83 1.34 0 2.51-.46 4.97-1.69v2.86c-2.98 1.4-4.73 1.75-7.07 1.75-2.63 0-4.5-.64-5.96-2.21a7.97 7.97 0 0 1-2.33-5.78c0-4.97 3.74-8.41 9.17-8.41 3.56 0 6.07 1.7 6.07 4.09 0 1.57-1.17 2.68-2.86 2.68-.88 0-1.58-.3-2.57-.82M43.06 48.2c2.4-2.97 3.27-4.2 3.27-5.66a2.75 2.75 0 0 0-2.8-2.74c-.94 0-1.81.52-2.22 1v6.12l-3.91 5.26V40.27h-3.74l-6.2 10.21V40.27h-2.1l-5.66 1.28v1.46l3.1.3v12.66h3.91l5.96-9.8v9.8h4.38M7.85 53.99h.87c3.16 0 4.91-1.93 4.91-5.78 0-3.21-1.4-4.97-4.03-4.97-.35 0-.88.06-1.75.24v10.5zm0 6.88l2.57.59v1.46H.32v-1.46l2.33-.59V43.24H.08v-1.46l6.13-1.86h1.64v2.1c2.86-1.75 3.85-2.05 5.37-2.05 3.39 0 5.96 3.16 5.96 7.54 0 5.02-3.45 8.46-8.7 8.46-.59 0-1.58-.06-2.63-.12v5.02z"/>
		</g>
	</symbol>
	<symbol id="pwc" viewBox="0 0 83 63">
		<g fill="#FFF" fill-rule="nonzero">
			<path d="M83 27.02H52.84V19.3H83z"/>
			<path d="M79.08 27.02H52.84V7.71h26.24z"/>
			<path d="M68.24 27.02h-15.4V0h15.4z"/>
			<path d="M71.27 27.02H52.84V3.01h18.43v24.01z"/>
			<path d="M52.84 3.02v23.99h15.4V3.02zM37.4 27.02h15.44v3.85H37.4z"/>
			<path d="M52.84 7.71v19.3h18.44V7.71z"/>
			<path d="M52.84 7.71v19.3h15.4V7.71z"/>
			<path d="M62.47 27.02h-9.63V15.43h9.63z"/>
			<path d="M52.84 19.3v7.71h26.25V19.3z"/>
			<path d="M52.84 19.3v7.71h18.44V19.3z"/>
			<path d="M52.84 19.3v7.71h15.4V19.3z"/>
			<path d="M52.84 19.3v7.71h9.64V19.3zM56.2 41.55c-2.63.47-4.03 2.45-4.03 5.9 0 3.5 1.87 5.83 4.61 5.83 1.34 0 2.51-.46 4.97-1.69v2.86c-2.98 1.4-4.73 1.75-7.07 1.75-2.63 0-4.5-.64-5.96-2.21a7.97 7.97 0 0 1-2.33-5.78c0-4.97 3.74-8.41 9.17-8.41 3.56 0 6.07 1.7 6.07 4.09 0 1.57-1.17 2.68-2.86 2.68-.88 0-1.58-.3-2.57-.82M43.06 48.2c2.4-2.97 3.27-4.2 3.27-5.66a2.75 2.75 0 0 0-2.8-2.74c-.94 0-1.81.52-2.22 1v6.12l-3.91 5.26V40.27h-3.74l-6.2 10.21V40.27h-2.1l-5.66 1.28v1.46l3.1.3v12.66h3.91l5.96-9.8v9.8h4.38M7.85 53.99h.87c3.16 0 4.91-1.93 4.91-5.78 0-3.21-1.4-4.97-4.03-4.97-.35 0-.88.06-1.75.24v10.5zm0 6.88l2.57.59v1.46H.32v-1.46l2.33-.59V43.24H.08v-1.46l6.13-1.86h1.64v2.1c2.86-1.75 3.85-2.05 5.37-2.05 3.39 0 5.96 3.16 5.96 7.54 0 5.02-3.45 8.46-8.7 8.46-.59 0-1.58-.06-2.63-.12v5.02z"/>
		</g>
	</symbol>
</svg>
